<?xml version="1.0" encoding="utf-8"?>
<!-- Generator: Adobe Illustrator 16.0.0, SVG Export Plug-In . SVG Version: 6.00 Build 0)  -->
<!DOCTYPE svg PUBLIC "-//W3C//DTD SVG 1.1//EN" "http://www.w3.org/Graphics/SVG/1.1/DTD/svg11.dtd">
<svg version="1.1" id="Capa_1" xmlns="http://www.w3.org/2000/svg" xmlns:xlink="http://www.w3.org/1999/xlink" x="0px" y="0px"
	 width="700.885px" height="134.514px" viewBox="0 0 700.885 134.514" enable-background="new 0 0 700.885 134.514"
	 xml:space="preserve">
<g>
	<path fill="#E30F6F" d="M153.842,124.038v-6.029c-7.398-0.533-13.116-3.334-17.152-8.402c-4.037-5.068-6.287-11.639-6.749-19.713
		l13.658-3.416c0.354,10.422,3.396,16.967,9.123,19.635l1.12,0.426v-29.61l-13.658-10.937c-3.13-2.525-5.629-5.664-7.496-9.417
		c-1.867-3.752-2.801-8.047-2.801-12.884c0-7.043,2.188-12.645,6.563-16.806s10.172-6.242,17.393-6.242v-5.869h6.829v6.456
		l2.187,0.48c11.239,3.059,17.34,10.99,18.3,23.794l-13.658,3.415c-0.319-6.687-2.24-11.471-5.762-14.352l-1.066-0.801v30.197
		l6.828,5.441c4.02,3.13,7.301,6.909,9.844,11.337c2.542,4.428,3.814,9.453,3.814,15.072c0,6.438-1.85,11.576-5.549,15.418
		s-8.679,6.1-14.938,6.775v6.029H153.842z M153.842,58.469V31.847c-3.273,0-5.798,0.925-7.576,2.773
		c-1.779,1.851-2.667,4.394-2.667,7.63c0,5.406,2.275,9.905,6.828,13.497L153.842,58.469z M160.671,106.646
		c4.552-1.031,6.828-4.34,6.828-9.924c0-2.773-0.498-5.176-1.493-7.203c-0.996-2.027-2.419-3.965-4.269-5.814l-1.066-1.066V106.646z
		"/>
	<path fill="#E30F6F" d="M238.724,118.169c-8.501,0-14.565-2.393-18.192-7.176c-3.628-4.783-5.442-11.816-5.442-21.1h13.658v2.133
		c0,1.814,0.062,3.389,0.187,4.723c0.124,1.334,0.373,2.703,0.747,4.107c0.373,1.406,0.889,2.543,1.547,3.414
		c0.658,0.873,1.556,1.592,2.694,2.16c1.138,0.57,2.489,0.855,4.055,0.855c1.244,0,2.374-0.152,3.388-0.455
		c1.014-0.301,1.885-0.674,2.614-1.119c0.729-0.445,1.378-1.094,1.947-1.947c0.568-0.854,1.04-1.645,1.414-2.375
		c0.373-0.729,0.685-1.734,0.934-3.014c0.248-1.281,0.436-2.355,0.561-3.229c0.124-0.871,0.222-2.098,0.293-3.682
		c0.071-1.582,0.106-2.809,0.106-3.68s0-2.18,0-3.922c0-0.781,0-1.369,0-1.762c0-1.527-0.018-2.835-0.053-3.92
		c-0.036-1.085-0.134-2.258-0.294-3.521c-0.16-1.262-0.383-2.32-0.667-3.174c-0.285-0.854-0.676-1.707-1.174-2.562
		c-0.498-0.854-1.103-1.528-1.813-2.027c-0.712-0.497-1.592-0.897-2.641-1.2c-1.05-0.302-2.232-0.453-3.548-0.453
		c-2.42,0-4.518,0.782-6.296,2.348s-3.077,3.414-3.895,5.548h-11.631V21.603h42.255v13.658h-29.877l-0.854,23.154
		c3.841-2.275,8.394-3.414,13.657-3.414c3.095,0,5.824,0.472,8.189,1.413c2.365,0.943,4.313,2.232,5.843,3.868
		c1.528,1.637,2.782,3.664,3.761,6.082c0.978,2.419,1.672,4.98,2.081,7.683c0.408,2.703,0.613,5.709,0.613,9.016
		c0,4.092-0.214,7.789-0.641,11.098c-0.427,3.307-1.191,6.49-2.294,9.549c-1.103,3.061-2.543,5.621-4.321,7.684
		c-1.779,2.063-4.1,3.707-6.962,4.936C245.81,117.556,242.493,118.169,238.724,118.169z"/>
	<path fill="#E30F6F" d="M295.223,118.169c-5.193,0-9.613-1.227-13.258-3.682c-3.646-2.453-6.332-5.77-8.057-9.949
		c-1.726-4.18-2.587-9.061-2.587-14.645V48.919c0-8.785,1.991-15.694,5.975-20.728c3.983-5.032,9.959-7.549,17.927-7.549
		c7.931,0,13.897,2.525,17.898,7.576c4.002,5.051,6.002,11.95,6.002,20.7v40.974c0,8.57-2.036,15.428-6.108,20.566
		C308.941,115.601,303.012,118.169,295.223,118.169z M295.223,106.966c6.828,0,10.243-5.691,10.243-17.072V48.919
		c0-1.921-0.072-3.637-0.214-5.148c-0.143-1.512-0.436-3.041-0.88-4.589c-0.445-1.547-1.032-2.836-1.761-3.867
		c-0.729-1.031-1.717-1.868-2.961-2.508c-1.245-0.641-2.721-0.96-4.428-0.96c-1.708,0-3.184,0.319-4.429,0.96
		c-1.245,0.64-2.232,1.477-2.961,2.508c-0.729,1.031-1.316,2.32-1.761,3.867c-0.445,1.548-0.738,3.077-0.88,4.589
		c-0.143,1.512-0.214,3.228-0.214,5.148v40.974c0,2.24,0.151,4.303,0.454,6.188c0.302,1.887,0.817,3.682,1.547,5.389
		c0.729,1.707,1.787,3.051,3.175,4.027C291.541,106.478,293.229,106.966,295.223,106.966z"/>
	<path fill="#E30F6F" d="M353.269,118.169c-5.193,0-9.613-1.227-13.258-3.682c-3.646-2.453-6.332-5.77-8.057-9.949
		c-1.726-4.18-2.587-9.061-2.587-14.645V48.919c0-8.785,1.991-15.694,5.975-20.728c3.983-5.032,9.959-7.549,17.927-7.549
		c7.931,0,13.897,2.525,17.898,7.576c4.002,5.051,6.002,11.95,6.002,20.7v40.974c0,8.57-2.036,15.428-6.108,20.566
		C366.987,115.601,361.058,118.169,353.269,118.169z M353.269,106.966c6.828,0,10.243-5.691,10.243-17.072V48.919
		c0-1.921-0.072-3.637-0.214-5.148c-0.143-1.512-0.436-3.041-0.88-4.589c-0.445-1.547-1.032-2.836-1.761-3.867
		c-0.729-1.031-1.717-1.868-2.961-2.508c-1.245-0.641-2.721-0.96-4.428-0.96c-1.708,0-3.184,0.319-4.429,0.96
		c-1.245,0.64-2.232,1.477-2.961,2.508c-0.729,1.031-1.316,2.32-1.761,3.867c-0.445,1.548-0.738,3.077-0.88,4.589
		c-0.143,1.512-0.214,3.228-0.214,5.148v40.974c0,2.24,0.151,4.303,0.454,6.188c0.302,1.887,0.817,3.682,1.547,5.389
		c0.729,1.707,1.787,3.051,3.175,4.027C349.587,106.478,351.275,106.966,353.269,106.966z"/>
	<path fill="#E30F6F" d="M385.705,117.208V103.55h13.658v13.658H385.705z"/>
	<path fill="#E30F6F" d="M431.802,118.169c-5.193,0-9.613-1.227-13.258-3.682c-3.646-2.453-6.332-5.77-8.057-9.949
		c-1.726-4.18-2.587-9.061-2.587-14.645V48.919c0-8.785,1.991-15.694,5.975-20.728c3.983-5.032,9.959-7.549,17.927-7.549
		c7.931,0,13.897,2.525,17.898,7.576c4.002,5.051,6.002,11.95,6.002,20.7v40.974c0,8.57-2.036,15.428-6.108,20.566
		C445.521,115.601,439.591,118.169,431.802,118.169z M431.802,106.966c6.828,0,10.243-5.691,10.243-17.072V48.919
		c0-1.921-0.072-3.637-0.214-5.148c-0.143-1.512-0.436-3.041-0.88-4.589c-0.445-1.547-1.032-2.836-1.761-3.867
		c-0.729-1.031-1.717-1.868-2.961-2.508c-1.245-0.641-2.721-0.96-4.428-0.96c-1.708,0-3.184,0.319-4.429,0.96
		c-1.245,0.64-2.232,1.477-2.961,2.508c-0.729,1.031-1.316,2.32-1.761,3.867c-0.445,1.548-0.738,3.077-0.88,4.589
		c-0.143,1.512-0.214,3.228-0.214,5.148v40.974c0,2.24,0.151,4.303,0.454,6.188c0.302,1.887,0.817,3.682,1.547,5.389
		c0.729,1.707,1.787,3.051,3.175,4.027C428.12,106.478,429.809,106.966,431.802,106.966z"/>
	<path fill="#E30F6F" d="M489.848,118.169c-5.193,0-9.613-1.227-13.258-3.682c-3.646-2.453-6.332-5.77-8.057-9.949
		c-1.726-4.18-2.587-9.061-2.587-14.645V48.919c0-8.785,1.991-15.694,5.975-20.728c3.983-5.032,9.959-7.549,17.927-7.549
		c7.931,0,13.897,2.525,17.898,7.576c4.002,5.051,6.002,11.95,6.002,20.7v40.974c0,8.57-2.036,15.428-6.108,20.566
		C503.566,115.601,497.637,118.169,489.848,118.169z M489.848,106.966c6.828,0,10.243-5.691,10.243-17.072V48.919
		c0-1.921-0.072-3.637-0.214-5.148c-0.143-1.512-0.436-3.041-0.88-4.589c-0.445-1.547-1.032-2.836-1.761-3.867
		c-0.729-1.031-1.717-1.868-2.961-2.508c-1.245-0.641-2.721-0.96-4.428-0.96c-1.708,0-3.184,0.319-4.429,0.96
		c-1.245,0.64-2.232,1.477-2.961,2.508c-0.729,1.031-1.316,2.32-1.761,3.867c-0.445,1.548-0.738,3.077-0.88,4.589
		c-0.143,1.512-0.214,3.228-0.214,5.148v40.974c0,2.24,0.151,4.303,0.454,6.188c0.302,1.887,0.817,3.682,1.547,5.389
		c0.729,1.707,1.787,3.051,3.175,4.027C486.166,106.478,487.854,106.966,489.848,106.966z"/>
	<path fill="#E30F6F" d="M547.894,118.169c-5.193,0-9.613-1.227-13.258-3.682c-3.646-2.453-6.332-5.77-8.057-9.949
		c-1.726-4.18-2.587-9.061-2.587-14.645V48.919c0-8.785,1.991-15.694,5.975-20.728c3.983-5.032,9.959-7.549,17.927-7.549
		c7.931,0,13.897,2.525,17.898,7.576c4.002,5.051,6.002,11.95,6.002,20.7v40.974c0,8.57-2.036,15.428-6.108,20.566
		C561.612,115.601,555.683,118.169,547.894,118.169z M547.894,106.966c6.828,0,10.243-5.691,10.243-17.072V48.919
		c0-1.921-0.072-3.637-0.214-5.148c-0.143-1.512-0.436-3.041-0.88-4.589c-0.445-1.547-1.032-2.836-1.761-3.867
		c-0.729-1.031-1.717-1.868-2.961-2.508c-1.245-0.641-2.721-0.96-4.428-0.96c-1.708,0-3.184,0.319-4.429,0.96
		c-1.245,0.64-2.232,1.477-2.961,2.508c-0.729,1.031-1.316,2.32-1.761,3.867c-0.445,1.548-0.738,3.077-0.88,4.589
		c-0.143,1.512-0.214,3.228-0.214,5.148v40.974c0,2.24,0.151,4.303,0.454,6.188c0.302,1.887,0.817,3.682,1.547,5.389
		c0.729,1.707,1.787,3.051,3.175,4.027C544.212,106.478,545.9,106.966,547.894,106.966z"/>
</g>
<g>
	<path fill="#E30F6F" d="M641.996,71.861c1.029,1.028,2.52,1.44,3.933,1.092c0.744-0.187,1.407-0.565,1.935-1.092
		c0.472-0.471,0.825-1.053,1.029-1.709c0.941-3.045,2.564-5.693,4.971-8.093c3.207-3.208,7.383-5.634,11.81-8.2
		c4.69-2.726,9.542-5.545,13.516-9.518c3.376-3.377,5.677-7.142,7.026-11.509c0.452-1.471,0.053-3.072-1.031-4.157L664.451,7.944
		c-1.03-1.029-2.519-1.441-3.932-1.093c-0.744,0.183-1.409,0.565-1.937,1.093c-0.47,0.47-0.825,1.053-1.029,1.703
		c-0.938,3.046-2.562,5.693-4.965,8.094c-3.209,3.208-7.389,5.638-11.811,8.206c-4.693,2.72-9.545,5.541-13.519,9.512
		c-3.377,3.382-5.677,7.144-7.023,11.509c-0.454,1.475-0.058,3.069,1.028,4.159L641.996,71.861z M661.517,10.875
		c6.867,6.864,13.869,13.866,20.738,20.733c-5.896,19.072-31.435,18.244-37.323,37.319c-6.867-6.867-13.868-13.868-20.735-20.732
		C630.091,29.118,655.628,29.952,661.517,10.875z"/>
	<path fill="#E30F6F" d="M645.654,41.218c0.978,0.811,2.124,1.154,3.458,1.079c1.33-0.082,2.763-0.478,4.303-1.305
		c1.222,1.414,2.45,2.818,3.675,4.122c-0.517,0.438-0.971,0.688-1.372,0.77c-0.399,0.085-0.756,0.077-1.081-0.021
		c-0.322-0.103-0.624-0.247-0.899-0.434c-0.276-0.19-0.548-0.353-0.819-0.485c-0.267-0.133-0.543-0.207-0.824-0.211
		c-0.282-0.004-0.581,0.133-0.914,0.417c-0.341,0.297-0.511,0.641-0.511,1.029c0,0.385,0.179,0.777,0.526,1.173
		c0.354,0.396,0.812,0.729,1.364,0.993c0.554,0.262,1.181,0.429,1.869,0.474c0.687,0.048,1.414-0.056,2.178-0.339
		c0.769-0.281,1.531-0.787,2.281-1.538c0.361,0.351,0.726,0.688,1.089,1.011c0.153,0.133,0.34,0.198,0.567,0.183
		c0.216-0.008,0.406-0.11,0.559-0.292c0.151-0.188,0.217-0.393,0.194-0.608c-0.02-0.218-0.108-0.385-0.259-0.505
		c-0.365-0.293-0.729-0.599-1.093-0.923c0.621-0.76,1.117-1.563,1.485-2.357c0.369-0.797,0.589-1.566,0.662-2.28
		c0.07-0.717-0.016-1.364-0.248-1.95c-0.232-0.596-0.645-1.105-1.237-1.597c-0.674-0.565-1.355-0.952-2.038-1.142
		c-0.681-0.19-1.36-0.268-2.05-0.218c-0.68,0.052-1.375,0.208-2.073,0.475c-0.697,0.271-1.396,0.565-2.102,0.908
		c-1.114-1.279-2.228-2.543-3.339-3.717c0.5-0.455,0.988-0.685,1.456-0.701c0.471-0.021,0.923,0.029,1.353,0.136
		c0.438,0.11,0.837,0.204,1.206,0.276c0.372,0.073,0.696-0.008,0.98-0.246c0.3-0.26,0.466-0.595,0.488-1
		c0.022-0.408-0.132-0.807-0.475-1.194c-0.438-0.502-0.962-0.807-1.595-0.918c-0.624-0.11-1.263-0.102-1.93,0.044
		c-0.655,0.148-1.278,0.396-1.869,0.743c-0.591,0.349-1.065,0.706-1.418,1.054c-0.136-0.128-0.27-0.255-0.405-0.382
		c-0.148-0.137-0.334-0.212-0.56-0.207c-0.226,0-0.411,0.097-0.565,0.275c-0.149,0.174-0.217,0.377-0.19,0.591
		c0.021,0.221,0.109,0.391,0.264,0.521c0.134,0.115,0.27,0.227,0.403,0.345c-0.529,0.641-0.968,1.348-1.313,2.094
		c-0.348,0.749-0.555,1.491-0.631,2.21c-0.081,0.725-0.005,1.389,0.216,2.005C644.645,40.193,645.055,40.72,645.654,41.218z
		 M655.606,39.897c0.337-0.141,0.671-0.235,1.008-0.293c0.345-0.052,0.685-0.038,1.022,0.044c0.336,0.085,0.656,0.268,0.952,0.555
		c0.293,0.293,0.478,0.596,0.552,0.923c0.081,0.332,0.085,0.667,0.029,1.011c-0.06,0.347-0.184,0.691-0.374,1.039
		c-0.186,0.345-0.399,0.652-0.65,0.919c-1.164-1.174-2.324-2.464-3.481-3.787C654.96,40.178,655.27,40.038,655.606,39.897z
		 M646.985,36.889c0.029-0.311,0.122-0.636,0.285-0.963c0.151-0.329,0.381-0.656,0.671-0.973c1.052,1.045,2.1,2.192,3.151,3.377
		c-0.797,0.438-1.488,0.672-2.076,0.697c-0.586,0.025-1.098-0.17-1.546-0.604c-0.19-0.182-0.325-0.404-0.406-0.668
		C646.982,37.492,646.952,37.204,646.985,36.889z"/>
	<path fill="#E30F6F" d="M642.521,62.697c0.406,0.404,1.066,0.404,1.472,0c0.063-0.063,0.114-0.133,0.154-0.208l1.326-1.813
		c0.82-1.123,1.769-2.228,2.821-3.277c1.163-1.164,2.241-2.06,3.553-3.058l-0.005-0.004c0.039-0.03,0.073-0.052,0.106-0.085
		c0.407-0.404,0.407-1.064,0-1.469c-0.375-0.382-0.976-0.398-1.385-0.068h-0.004c-1.295,0.995-2.561,2.044-3.731,3.22
		c-1.127,1.125-2.144,2.312-3.029,3.521l-1.418,1.937l0.004,0.004C642.126,61.801,642.169,62.345,642.521,62.697z"/>
	<path fill="#E30F6F" d="M655.882,27.405l0.008,0.004c1.295-0.995,2.558-2.048,3.729-3.219c1.127-1.126,2.143-2.308,3.03-3.519
		l1.416-1.945l-0.001-0.004c0.351-0.412,0.334-1.028-0.054-1.418c-0.409-0.408-1.07-0.408-1.479,0
		c-0.075,0.076-0.133,0.167-0.184,0.255l-1.375,1.887c-0.823,1.127-1.771,2.229-2.819,3.278c-1.084,1.084-2.26,2.06-3.479,2.992
		c-0.085,0.047-0.17,0.101-0.243,0.178c-0.409,0.408-0.409,1.074,0,1.483C654.827,27.776,655.468,27.785,655.882,27.405z"/>
	<path fill="#E30F6F" d="M691.322,64.809c-3.585-3.022-8.958-2.588-12.014,0.956l-12.633,12.984
		c-1.595-1.965-4.026-3.188-6.655-3.188h-23.872c-3.396-1.421-7-2.141-10.719-2.141c-10.309,0-19.31,4.76-24.142,13.688
		c-2.035-0.387-4.182,0.229-5.726,1.773l-10.184,10.214c-0.829,0.834-0.832,2.184-0.003,3.021l24.035,24.218
		c0.831,0.837,2.182,0.848,3.021,0.019l10.381-10.226c1.763-1.764,2.3-4.374,1.523-6.644l2.23-2.152c1.203-1.159,2.786-1.8,4.46-1.8
		h28.458c5.049,0,9.822-1.939,13.439-5.461c0.147-0.146-1.13,1.363,19.415-23.192C695.386,73.272,694.93,67.859,691.322,64.809z
		 M619.796,113.089l-8.847,8.718l-21.035-21.196l8.679-8.704c0.707-0.704,1.79-0.832,2.651-0.301
		c0.37,0.227-0.693-0.742,18.541,18.466C620.642,110.927,620.595,112.291,619.796,113.089z M689.063,74.123l-19.2,22.952
		c-2.805,2.691-6.485,4.175-10.377,4.175h-28.458c-2.789,0-5.43,1.066-7.432,3l-1.819,1.756l-16.771-16.771
		c3.919-7.353,11.274-11.533,20.421-11.533c3.28,0,6.45,0.659,9.425,1.96c0.271,0.118,0.563,0.18,0.859,0.18h24.31
		c2.32,0,4.283,1.893,4.283,4.281c0,2.361-1.922,4.281-4.283,4.281h-17.465c-1.185,0-2.143,0.959-2.143,2.141
		c0,1.184,0.958,2.142,2.143,2.142h17.465c4.723,0,8.563-3.842,8.563-8.563c0-0.376-0.026-0.75-0.075-1.119
		c12.22-12.562,13.942-14.325,14.016-14.414c1.526-1.801,4.235-2.028,6.035-0.51C690.363,69.604,690.592,72.312,689.063,74.123z"/>
</g>
<g>
	<path fill="#E30F6F" d="M83.306,51.128c1.086-1.09,1.483-2.685,1.029-4.159c-1.348-4.365-3.647-8.127-7.024-11.509
		c-3.975-3.972-8.825-6.792-13.519-9.512c-4.422-2.568-8.602-4.999-11.812-8.206c-2.402-2.401-4.026-5.048-4.965-8.094
		c-0.203-0.65-0.557-1.233-1.028-1.703c-0.526-0.527-1.192-0.91-1.937-1.093c-1.412-0.349-2.902,0.063-3.931,1.093L19.387,28.676
		c-1.084,1.084-1.483,2.686-1.031,4.157c1.35,4.367,3.648,8.131,7.025,11.509c3.973,3.973,8.825,6.792,13.514,9.518
		c4.426,2.565,8.604,4.991,11.812,8.2c2.405,2.4,4.028,5.048,4.97,8.093c0.203,0.656,0.558,1.238,1.029,1.709
		c0.526,0.526,1.191,0.905,1.936,1.092c1.413,0.349,2.903-0.063,3.931-1.092L83.306,51.128z M80.372,48.194
		c-6.867,6.864-13.866,13.866-20.733,20.732c-5.89-19.075-31.428-18.247-37.323-37.319c6.868-6.867,13.87-13.869,20.736-20.733
		C48.942,29.952,74.48,29.118,80.372,48.194z"/>
	<path fill="#E30F6F" d="M54.068,46.743c0.681-1.071,0.878-2.254,0.634-3.566c-0.249-1.308-0.822-2.68-1.836-4.103
		c1.249-1.392,2.486-2.787,3.625-4.167c0.499,0.459,0.805,0.878,0.936,1.265c0.135,0.386,0.171,0.742,0.115,1.074
		c-0.06,0.334-0.166,0.65-0.316,0.948c-0.154,0.298-0.28,0.587-0.378,0.873c-0.098,0.282-0.137,0.565-0.105,0.845
		c0.031,0.281,0.204,0.561,0.527,0.854c0.338,0.3,0.701,0.425,1.085,0.377c0.383-0.048,0.749-0.275,1.098-0.671
		c0.349-0.399,0.622-0.896,0.813-1.479c0.191-0.583,0.276-1.224,0.235-1.914c-0.04-0.688-0.233-1.395-0.612-2.118
		c-0.374-0.728-0.972-1.42-1.813-2.069c0.304-0.401,0.591-0.806,0.866-1.208c0.113-0.169,0.155-0.361,0.11-0.584
		c-0.035-0.215-0.16-0.392-0.361-0.519c-0.205-0.128-0.416-0.166-0.627-0.117c-0.212,0.049-0.369,0.158-0.469,0.321
		c-0.245,0.399-0.501,0.799-0.777,1.2c-0.833-0.519-1.692-0.911-2.526-1.176c-0.839-0.266-1.629-0.385-2.346-0.367
		c-0.721,0.019-1.352,0.185-1.904,0.491c-0.562,0.306-1.016,0.779-1.428,1.427c-0.476,0.742-0.773,1.465-0.876,2.168
		c-0.104,0.698-0.093,1.383,0.042,2.06c0.137,0.668,0.379,1.34,0.733,1.996c0.357,0.658,0.738,1.315,1.165,1.972
		c-1.128,1.266-2.242,2.53-3.266,3.783c-0.514-0.441-0.804-0.896-0.88-1.358c-0.079-0.465-0.087-0.919-0.034-1.358
		c0.054-0.447,0.097-0.857,0.122-1.232c0.025-0.379-0.096-0.69-0.369-0.941c-0.295-0.266-0.649-0.388-1.053-0.36
		c-0.407,0.031-0.782,0.233-1.124,0.621c-0.443,0.498-0.679,1.058-0.71,1.7c-0.03,0.633,0.059,1.266,0.287,1.908
		c0.23,0.63,0.554,1.218,0.974,1.761c0.42,0.542,0.833,0.968,1.224,1.273c-0.111,0.15-0.219,0.3-0.327,0.449
		c-0.117,0.166-0.167,0.36-0.135,0.582c0.028,0.224,0.148,0.397,0.344,0.527c0.191,0.126,0.401,0.168,0.61,0.115
		c0.218-0.049,0.375-0.159,0.485-0.328c0.096-0.148,0.19-0.296,0.291-0.445c0.702,0.445,1.458,0.792,2.243,1.039
		c0.786,0.25,1.549,0.363,2.272,0.349c0.73-0.012,1.378-0.171,1.961-0.47C53.18,47.874,53.65,47.4,54.068,46.743z M51.504,37.037
		c-0.183-0.315-0.318-0.636-0.418-0.963c-0.094-0.334-0.123-0.674-0.086-1.02c0.042-0.345,0.183-0.685,0.432-1.015
		c0.253-0.327,0.53-0.548,0.845-0.664c0.319-0.121,0.651-0.168,1-0.156c0.352,0.016,0.708,0.094,1.077,0.239
		c0.365,0.143,0.696,0.315,0.994,0.531c-1.018,1.301-2.151,2.616-3.317,3.933C51.862,37.644,51.686,37.353,51.504,37.037z
		 M49.605,45.969c-0.313,0.01-0.646-0.042-0.992-0.161c-0.345-0.11-0.697-0.295-1.049-0.543c0.904-1.174,1.909-2.36,2.953-3.552
		c0.534,0.735,0.854,1.392,0.953,1.971c0.099,0.578-0.03,1.112-0.404,1.61c-0.157,0.212-0.36,0.372-0.612,0.485
		C50.204,45.897,49.923,45.962,49.605,45.969z"/>
	<path fill="#E30F6F" d="M62.049,62.697c-0.404,0.404-1.066,0.404-1.473,0c-0.062-0.063-0.111-0.133-0.152-0.208l-1.326-1.813
		c-0.821-1.123-1.771-2.228-2.822-3.277c-1.163-1.164-2.241-2.06-3.554-3.058l0.004-0.004c-0.037-0.03-0.071-0.052-0.105-0.085
		c-0.406-0.404-0.406-1.064,0-1.469c0.375-0.382,0.977-0.398,1.385-0.068h0.004c1.295,0.995,2.56,2.044,3.732,3.22
		c1.125,1.125,2.143,2.312,3.028,3.521l1.418,1.937l-0.004,0.004C62.444,61.801,62.401,62.345,62.049,62.697z"/>
	<path fill="#E30F6F" d="M48.688,27.405l-0.008,0.004c-1.296-0.995-2.559-2.048-3.73-3.219c-1.126-1.126-2.141-2.308-3.029-3.519
		l-1.418-1.945l0.004-0.004c-0.353-0.412-0.335-1.028,0.051-1.418c0.409-0.408,1.07-0.408,1.479,0
		c0.077,0.076,0.133,0.167,0.182,0.255l1.376,1.887c0.824,1.127,1.772,2.229,2.821,3.278c1.084,1.084,2.26,2.06,3.479,2.992
		c0.085,0.047,0.169,0.101,0.242,0.178c0.408,0.408,0.408,1.074,0,1.483C49.741,27.776,49.101,27.785,48.688,27.405z"/>
	<path fill="#E30F6F" d="M12.231,76.878c20.544,24.556,19.266,23.047,19.415,23.192c3.618,3.521,8.39,5.461,13.439,5.461h28.458
		c1.673,0,3.255,0.641,4.458,1.8l2.232,2.152c-0.775,2.27-0.239,4.88,1.524,6.644l10.379,10.226c0.84,0.829,2.191,0.818,3.021-0.019
		l24.037-24.218c0.829-0.837,0.829-2.187-0.005-3.021l-10.184-10.214c-1.543-1.544-3.689-2.16-5.726-1.773
		C98.451,78.18,89.45,73.42,79.141,73.42c-3.718,0-7.323,0.72-10.72,2.141H44.55c-2.629,0-5.061,1.223-6.656,3.188L25.261,65.764
		c-3.055-3.544-8.427-3.978-12.013-0.956C9.639,67.859,9.184,73.272,12.231,76.878z M84.785,110.071
		c19.235-19.208,18.171-18.239,18.542-18.466c0.861-0.531,1.945-0.403,2.651,0.301l8.679,8.704l-21.035,21.196l-8.848-8.718
		C83.975,112.291,83.929,110.927,84.785,110.071z M16.009,68.08c1.802-1.519,4.511-1.291,6.036,0.51
		c0.074,0.089,1.797,1.853,14.018,14.414c-0.05,0.369-0.076,0.743-0.076,1.119c0,4.722,3.841,8.563,8.563,8.563h17.466
		c1.182,0,2.14-0.958,2.14-2.142c0-1.182-0.958-2.141-2.14-2.141H44.55c-2.361,0-4.282-1.92-4.282-4.281
		c0-2.389,1.96-4.281,4.282-4.281h24.309c0.296,0,0.588-0.062,0.858-0.18c2.976-1.301,6.146-1.96,9.424-1.96
		c9.148,0,16.503,4.181,20.423,11.533l-16.771,16.771l-1.819-1.756c-2.002-1.934-4.642-3-7.432-3H45.085
		c-3.892,0-7.572-1.483-10.376-4.175L15.508,74.123C13.978,72.312,14.206,69.604,16.009,68.08z"/>
</g>
</svg>
