<?xml version="1.0" encoding="utf-8"?>
<!-- Generator: Adobe Illustrator 16.0.0, SVG Export Plug-In . SVG Version: 6.00 Build 0)  -->
<!DOCTYPE svg PUBLIC "-//W3C//DTD SVG 1.1//EN" "http://www.w3.org/Graphics/SVG/1.1/DTD/svg11.dtd">
<svg version="1.1" id="Capa_1" xmlns="http://www.w3.org/2000/svg" xmlns:xlink="http://www.w3.org/1999/xlink" x="0px" y="0px"
	 width="406.194px" height="105.31px" viewBox="0 0 406.194 105.31" enable-background="new 0 0 406.194 105.31"
	 xml:space="preserve">
<g>
	<g>
		<path fill="#E30F6F" d="M174.333,45.119c0-2.493-0.46-4.888-1.343-7.227c-0.884-2.341-2.196-4.452-3.836-6.298
			c-1.665-1.864-3.66-3.333-5.991-4.454c-2.343-1.115-4.924-1.667-7.796-1.667c-2.773,0-5.351,0.512-7.711,1.578
			c-2.346,1.082-4.384,2.514-6.099,4.279c-1.709,1.812-3.042,3.878-3.977,6.242c-0.131,0.314-0.25,0.635-0.362,0.953
			c-0.058-1.455-0.357-2.914-0.927-4.373c-0.65-1.598-1.516-3.026-2.628-4.278c-1.101-1.24-2.443-2.244-4-3.051
			c-1.537-0.755-3.25-1.138-5.083-1.138h-15.654h-0.562H97.769l-6.845,12.138l-6.841-12.138H72.916l12.567,19.512L73.339,64.213
			h11.169l6.415-11.62l6.416,11.62h11.024h0.12h10.209V52.367h6.167c1.82,0,3.524-0.359,5.056-1.095
			c1.518-0.757,2.842-1.749,3.917-2.985c0.986-1.128,1.737-2.404,2.328-3.832c-0.002,0.146-0.008,0.29-0.008,0.435
			c0,2.5,0.431,4.907,1.344,7.271c0.935,2.357,2.242,4.447,3.875,6.272c1.67,1.815,3.673,3.299,5.99,4.429
			c2.331,1.119,4.936,1.688,7.791,1.688c2.789,0,5.363-0.551,7.717-1.644c2.335-1.097,4.375-2.526,6.072-4.296
			c1.686-1.815,2.992-3.878,3.969-6.197C173.873,50.074,174.333,47.646,174.333,45.119z M108.363,64.029L96.33,45.197l12.033-18.644
			V64.029z M125.916,42.252c-0.539,0.588-1.135,0.902-1.756,0.902h-5.468v-8.26h5.187c0.649,0,1.264,0.294,1.917,0.864
			c0.656,0.588,0.942,1.687,0.942,3.268C126.737,40.567,126.474,41.667,125.916,42.252z M163.345,48.64
			c-0.353,1.216-0.854,2.312-1.527,3.269c-0.707,0.963-1.59,1.722-2.694,2.359c-1.109,0.586-2.356,0.881-3.874,0.881
			c-1.479,0-2.749-0.295-3.83-0.881c-1.075-0.572-1.979-1.331-2.67-2.279c-0.709-0.93-1.264-2.02-1.597-3.223
			c-0.343-1.209-0.538-2.462-0.538-3.778c0-1.261,0.175-2.482,0.513-3.71c0.337-1.221,0.876-2.292,1.561-3.258
			c0.714-0.958,1.597-1.712,2.677-2.302c1.078-0.591,2.366-0.884,3.833-0.884c1.451,0,2.742,0.292,3.799,0.844
			c1.093,0.564,1.981,1.307,2.687,2.228c0.734,0.928,1.276,1.982,1.637,3.209c0.356,1.222,0.522,2.464,0.522,3.774
			C163.843,46.175,163.676,47.389,163.345,48.64z"/>
		<path fill="#E30F6F" d="M211.489,31.331c-1.589-1.747-3.555-3.121-5.91-4.131c-2.385-1.015-5.133-1.515-8.232-1.515h-14.473
			v38.528h14.473c2.861,0,5.461-0.462,7.775-1.387c2.338-0.931,4.351-2.233,5.993-3.902c1.688-1.681,2.939-3.74,3.85-6.092
			c0.906-2.36,1.358-5.015,1.358-7.942c0-2.638-0.407-5.124-1.217-7.464C214.299,35.083,213.085,33.066,211.489,31.331z
			 M205.271,48.915c-0.357,1.213-0.911,2.272-1.631,3.2c-0.757,0.883-1.64,1.6-2.688,2.109c-1.058,0.507-2.259,0.756-3.605,0.756
			h-4.151V34.895h4.151c1.33,0,2.491,0.232,3.569,0.741c1.048,0.482,1.93,1.181,2.638,2.019c0.731,0.893,1.321,1.937,1.693,3.163
			c0.386,1.225,0.579,2.59,0.579,4.072C205.827,46.343,205.634,47.667,205.271,48.915z"/>
		<polygon fill="#E30F6F" points="227.963,48.915 241.623,48.915 241.623,40.336 227.963,40.336 227.963,34.895 243.979,34.895 
			243.979,25.685 217.646,25.685 217.646,64.213 244.465,64.213 244.465,54.979 227.963,54.979 		"/>
		<polygon fill="#E30F6F" points="262.95,64.213 273.271,64.213 273.271,34.895 284.096,34.895 284.096,25.685 252.07,25.685 
			252.07,34.895 262.95,34.895 		"/>
		<path fill="#E30F6F" d="M314.791,58.609c1.731-1.815,3.031-3.878,3.993-6.197c0.938-2.338,1.424-4.766,1.424-7.293
			c0-2.493-0.441-4.888-1.354-7.227c-0.896-2.341-2.166-4.452-3.855-6.298c-1.654-1.864-3.619-3.333-5.972-4.454
			c-2.331-1.115-4.918-1.667-7.768-1.667c-2.809,0-5.397,0.512-7.713,1.578c-2.356,1.083-4.39,2.514-6.108,4.279
			c-1.693,1.812-3.037,3.878-3.995,6.242c-0.962,2.341-1.442,4.764-1.442,7.317c0,2.5,0.458,4.907,1.377,7.271
			c0.946,2.357,2.194,4.447,3.888,6.272c1.644,1.815,3.626,3.299,5.978,4.429c2.321,1.119,4.935,1.688,7.798,1.688
			c2.794,0,5.365-0.551,7.719-1.644C311.084,61.808,313.104,60.379,314.791,58.609z M305.007,54.268
			c-1.1,0.586-2.402,0.881-3.874,0.881c-1.468,0-2.754-0.295-3.836-0.881c-1.1-0.572-1.977-1.331-2.679-2.279
			c-0.695-0.93-1.238-2.02-1.566-3.223c-0.384-1.209-0.563-2.462-0.563-3.778c0-1.261,0.179-2.482,0.504-3.71
			c0.342-1.221,0.869-2.292,1.565-3.258c0.711-0.958,1.605-1.712,2.701-2.302c1.059-0.591,2.354-0.884,3.832-0.884
			c1.443,0,2.693,0.292,3.8,0.844c1.048,0.564,1.95,1.31,2.689,2.228c0.713,0.928,1.273,1.982,1.6,3.209
			c0.366,1.222,0.555,2.464,0.555,3.774c0,1.286-0.173,2.5-0.511,3.75c-0.335,1.216-0.839,2.312-1.558,3.269
			C306.989,52.872,306.101,53.631,305.007,54.268z"/>
		<path fill="#E30F6F" d="M390.982,37.893c-0.904-2.341-2.17-4.452-3.859-6.298c-1.636-1.864-3.644-3.333-5.972-4.454
			c-2.337-1.115-4.944-1.667-7.794-1.667c-2.803,0-5.371,0.512-7.711,1.578c-2.335,1.083-4.379,2.514-6.085,4.279
			c-1.734,1.812-3.041,3.878-4.001,6.242c-0.442,1.079-0.777,2.177-1.021,3.297c-0.209-1.185-0.504-2.331-0.881-3.444
			c-0.827-2.342-2.019-4.359-3.601-6.095c-1.614-1.747-3.572-3.121-5.942-4.131c-2.383-1.015-5.104-1.515-8.201-1.515h-14.492
			v38.528h14.492c2.864,0,5.432-0.462,7.767-1.387c2.343-0.931,4.323-2.233,6.015-3.902c1.641-1.681,2.902-3.74,3.827-6.092
			c0.456-1.208,0.796-2.487,1.028-3.841c0.232,1.067,0.542,2.124,0.947,3.17c0.918,2.357,2.205,4.447,3.864,6.272
			c1.678,1.815,3.65,3.299,5.982,4.429c2.343,1.119,4.94,1.688,7.803,1.688c2.808,0,5.365-0.551,7.699-1.644
			c2.352-1.097,4.368-2.526,6.06-4.296c1.694-1.815,3.039-3.878,3.993-6.197c0.945-2.338,1.432-4.766,1.432-7.293
			C392.332,42.626,391.896,40.231,390.982,37.893z M343.84,48.915c-0.38,1.213-0.933,2.272-1.662,3.2
			c-0.724,0.883-1.63,1.6-2.687,2.109c-1.06,0.507-2.251,0.756-3.576,0.756h-4.135V34.895h4.135c1.303,0,2.476,0.232,3.537,0.741
			c1.049,0.482,1.94,1.181,2.67,2.019c0.733,0.894,1.292,1.937,1.671,3.163c0.382,1.225,0.587,2.59,0.587,4.072
			C344.38,46.343,344.187,47.667,343.84,48.915z M381.346,48.64c-0.333,1.216-0.849,2.312-1.559,3.269
			c-0.68,0.963-1.583,1.722-2.652,2.359c-1.096,0.586-2.41,0.881-3.888,0.881c-1.457,0-2.755-0.295-3.826-0.881
			c-1.097-0.572-1.98-1.331-2.676-2.279c-0.717-0.93-1.25-2.02-1.604-3.223c-0.354-1.209-0.529-2.462-0.529-3.778
			c0-1.261,0.176-2.482,0.503-3.71c0.345-1.221,0.854-2.292,1.569-3.258c0.717-0.958,1.603-1.712,2.665-2.302
			c1.089-0.591,2.374-0.884,3.871-0.884c1.433,0,2.698,0.292,3.772,0.844c1.063,0.564,1.979,1.31,2.713,2.228
			c0.712,0.928,1.238,1.982,1.612,3.209c0.352,1.222,0.509,2.464,0.509,3.774C381.826,46.175,381.685,47.389,381.346,48.64z"/>
		<path fill="#E30F6F" d="M16.27,96.985l26.575-10.054l25.899,10.054V8.011H16.27V96.985z M25.597,20.138H61.2V32.85H39.568v7.477
			h18.478v11.811H39.568v8.375h22.275v12.716H25.597V20.138z"/>
		<polygon fill="#E30F6F" points="354.089,69.614 353.241,69.614 352.666,71.088 353.049,71.088 		"/>
		<polygon fill="#E30F6F" points="91.589,84.282 92.549,84.282 92.549,78.602 98.268,78.602 98.268,77.828 92.549,77.828 
			92.549,73.608 98.694,73.608 98.694,72.831 91.589,72.831 		"/>
		<polygon fill="#E30F6F" points="102.235,78.772 108.12,78.772 108.12,78 102.235,78 102.235,73.623 109.012,73.623 
			109.012,72.848 101.323,72.848 101.323,84.282 109.217,84.282 109.217,83.509 102.235,83.509 		"/>
		<path fill="#E30F6F" d="M118.25,79.05c0.139-0.022,0.358-0.076,0.659-0.153c0.27-0.078,0.556-0.22,0.843-0.432
			c0.281-0.206,0.536-0.501,0.759-0.883c0.212-0.37,0.321-0.886,0.321-1.53c0-0.513-0.092-1.001-0.274-1.445
			c-0.175-0.426-0.465-0.792-0.859-1.087c-0.218-0.163-0.437-0.292-0.655-0.378c-0.222-0.085-0.47-0.152-0.735-0.192
			c-0.28-0.046-0.584-0.072-0.901-0.084c-0.333-0.01-0.71-0.018-1.129-0.018h-4.159v11.435h0.926v-5.134h3.616l3.286,5.134h1.146
			l-3.336-5.157L118.25,79.05z M116.57,78.46h-3.524v-4.923h3.44c0.472,0,0.917,0.02,1.314,0.06
			c0.452,0.048,0.866,0.223,1.232,0.526c0.199,0.157,0.361,0.339,0.476,0.539c0.111,0.188,0.194,0.378,0.249,0.563
			c0.052,0.181,0.082,0.347,0.096,0.497c0.012,0.14,0.017,0.259,0.017,0.344c0,0.49-0.127,0.951-0.381,1.367
			c-0.266,0.438-0.728,0.74-1.368,0.897c-0.263,0.062-0.524,0.098-0.784,0.111C117.095,78.457,116.839,78.46,116.57,78.46z"/>
		<rect x="123.806" y="72.848" fill="#E30F6F" width="0.963" height="11.435"/>
		<path fill="#E30F6F" d="M131.713,72.848l-4.355,11.435h1.015l1.353-3.695h5.056l1.318,3.695h1.002l-4.16-11.435H131.713z
			 M130.001,79.879l2.318-6.307l2.21,6.307H130.001z"/>
		<polygon fill="#E30F6F" points="145.901,78.772 151.786,78.772 151.786,78 145.901,78 145.901,73.623 152.677,73.623 
			152.677,72.848 144.988,72.848 144.988,84.282 152.881,84.282 152.881,83.509 145.901,83.509 		"/>
		<polygon fill="#E30F6F" points="165.613,84.282 166.55,84.282 166.55,72.848 165.865,72.848 		"/>
		<polygon fill="#E30F6F" points="155.616,72.848 155.616,84.282 156.537,84.282 156.34,72.848 		"/>
		<polygon fill="#E30F6F" points="165.026,72.848 161.075,83.351 157.135,72.848 156.371,72.848 160.665,84.282 161.465,84.282 
			165.773,72.848 		"/>
		<path fill="#E30F6F" d="M178.214,74.163c-0.151-0.251-0.348-0.477-0.577-0.67c-0.233-0.191-0.511-0.344-0.828-0.458
			c-0.284-0.091-0.584-0.146-0.883-0.16c-0.325-0.016-0.635-0.026-0.927-0.026h-4.891v11.435h0.908v-5.118h3.815
			c0.359,0,0.692-0.007,1-0.023c0.286-0.016,0.569-0.066,0.837-0.148c0.354-0.11,0.662-0.274,0.913-0.487
			c0.256-0.213,0.465-0.461,0.623-0.734c0.155-0.278,0.276-0.575,0.35-0.889c0.073-0.313,0.109-0.628,0.109-0.935
			c0-0.328-0.035-0.648-0.109-0.951C178.482,74.699,178.369,74.419,178.214,74.163z M177.551,76.884
			c-0.107,0.334-0.281,0.625-0.522,0.866c-0.324,0.324-0.69,0.515-1.088,0.571c-0.344,0.049-0.762,0.07-1.239,0.07h-3.687v-4.801
			h4.045c0.297,0,0.601,0.02,0.904,0.062c0.353,0.051,0.687,0.208,0.996,0.479c0.332,0.279,0.548,0.605,0.633,0.966
			c0.074,0.318,0.108,0.583,0.108,0.815C177.702,76.241,177.653,76.569,177.551,76.884z"/>
		<path fill="#E30F6F" d="M187.425,79.05c0.141-0.022,0.36-0.076,0.658-0.153c0.274-0.078,0.556-0.22,0.843-0.432
			c0.281-0.206,0.537-0.501,0.759-0.883c0.216-0.37,0.324-0.886,0.324-1.53c0-0.515-0.092-1.001-0.273-1.445
			c-0.178-0.426-0.469-0.792-0.861-1.087c-0.218-0.163-0.437-0.292-0.657-0.378c-0.22-0.085-0.466-0.152-0.733-0.192
			c-0.281-0.046-0.584-0.072-0.901-0.084c-0.333-0.01-0.711-0.018-1.127-0.018h-4.16v11.435h0.929v-5.134h3.612l3.284,5.134h1.149
			l-3.337-5.157L187.425,79.05z M185.748,78.46h-3.523v-4.923h3.436c0.476,0,0.919,0.02,1.319,0.06
			c0.448,0.048,0.864,0.223,1.231,0.526c0.196,0.157,0.357,0.339,0.477,0.539c0.11,0.188,0.191,0.378,0.244,0.564
			c0.052,0.175,0.086,0.342,0.096,0.493c0.014,0.147,0.019,0.262,0.019,0.347c0,0.49-0.128,0.951-0.379,1.367
			c-0.269,0.438-0.729,0.74-1.374,0.897c-0.256,0.062-0.519,0.098-0.782,0.111C186.27,78.457,186.013,78.46,185.748,78.46z"/>
		<polygon fill="#E30F6F" points="194.079,78.772 199.966,78.772 199.966,78 194.079,78 194.079,73.623 200.855,73.623 
			200.855,72.848 193.17,72.848 193.17,84.282 201.062,84.282 201.062,83.509 194.079,83.509 		"/>
		<path fill="#E30F6F" d="M212.238,79.744c-0.129-0.247-0.322-0.49-0.567-0.724c-0.247-0.228-0.583-0.433-1.006-0.613
			c-0.223-0.093-0.465-0.176-0.724-0.24l-2.456-0.618c-0.26-0.057-0.54-0.126-0.828-0.208c-0.303-0.087-0.589-0.207-0.843-0.36
			c-0.271-0.156-0.501-0.368-0.674-0.625c-0.185-0.269-0.281-0.607-0.281-1.003c0-0.38,0.091-0.72,0.271-1.008
			c0.174-0.284,0.407-0.521,0.698-0.705c0.283-0.178,0.611-0.313,0.976-0.394c0.727-0.162,1.55-0.157,2.318,0.008
			c0.419,0.089,0.801,0.264,1.142,0.517c0.267,0.195,0.467,0.408,0.614,0.633c0.138,0.215,0.247,0.425,0.323,0.627
			c0.077,0.207,0.123,0.406,0.146,0.591c0.002,0.025,0.003,0.047,0.005,0.069l0.939-0.058c-0.021-0.086-0.037-0.176-0.06-0.268
			c-0.047-0.214-0.12-0.441-0.226-0.67c-0.105-0.231-0.247-0.468-0.422-0.705c-0.167-0.227-0.385-0.441-0.652-0.63
			c-0.253-0.188-0.511-0.334-0.78-0.436c-0.271-0.103-0.55-0.189-0.813-0.246c-0.267-0.058-0.526-0.096-0.772-0.111
			c-0.493-0.033-0.852-0.037-1.371,0.005c-0.248,0.021-0.51,0.068-0.771,0.13c-0.263,0.063-0.532,0.16-0.804,0.289
			c-0.263,0.125-0.526,0.292-0.776,0.502c-0.102,0.089-0.214,0.208-0.34,0.341c-0.112,0.123-0.218,0.273-0.314,0.444
			c-0.095,0.172-0.18,0.373-0.245,0.594c-0.064,0.213-0.099,0.456-0.099,0.724c0,0.557,0.124,1.012,0.368,1.352
			c0.256,0.361,0.584,0.659,0.97,0.887c0.402,0.237,0.846,0.422,1.322,0.55c0.504,0.134,0.966,0.248,1.396,0.338l1.012,0.204
			c0.302,0.058,0.601,0.136,0.885,0.223c0.303,0.097,0.584,0.231,0.823,0.404c0.257,0.183,0.462,0.414,0.612,0.681
			c0.15,0.279,0.229,0.623,0.229,1.034c0,0.448-0.094,0.849-0.268,1.193c-0.178,0.337-0.422,0.629-0.725,0.861
			c-0.299,0.23-0.661,0.406-1.067,0.518c-0.812,0.227-1.784,0.223-2.68-0.026c-0.478-0.132-0.912-0.362-1.289-0.691
			c-0.259-0.233-0.458-0.477-0.602-0.729c-0.135-0.24-0.239-0.478-0.315-0.708c-0.074-0.231-0.125-0.454-0.144-0.661
			c-0.004-0.04-0.007-0.073-0.009-0.108l-1.072,0.136c0.059,0.49,0.175,0.917,0.343,1.273c0.207,0.432,0.452,0.793,0.738,1.069
			c0.283,0.279,0.605,0.497,0.949,0.649c0.358,0.16,0.715,0.278,1.059,0.362c0.341,0.078,0.662,0.13,0.955,0.15
			c0.606,0.043,0.862,0.04,1.361,0.007c0.236-0.013,0.496-0.053,0.778-0.104c0.271-0.054,0.557-0.138,0.847-0.245
			c0.286-0.104,0.565-0.248,0.843-0.431c0.49-0.328,0.852-0.728,1.067-1.176c0.216-0.466,0.324-0.964,0.324-1.483
			c0-0.185-0.022-0.406-0.063-0.659C212.455,80.238,212.372,79.992,212.238,79.744z"/>
		<path fill="#E30F6F" d="M219.177,72.848l-4.35,11.435h1.011l1.352-3.695h5.061l1.31,3.695h1.01l-4.16-11.435H219.177z
			 M217.464,79.879l2.323-6.307l2.209,6.307H217.464z"/>
		<path fill="#E30F6F" d="M233.487,79.05c0.143-0.022,0.354-0.076,0.655-0.153c0.273-0.078,0.56-0.22,0.846-0.432
			c0.277-0.206,0.534-0.501,0.757-0.883c0.213-0.37,0.322-0.886,0.322-1.53c0-0.515-0.096-1.001-0.271-1.445
			c-0.178-0.426-0.47-0.792-0.866-1.087c-0.216-0.163-0.436-0.292-0.652-0.378c-0.223-0.085-0.467-0.152-0.734-0.192
			c-0.277-0.046-0.586-0.072-0.9-0.084c-0.334-0.01-0.713-0.018-1.129-0.018h-4.157v11.435h0.926v-5.134h3.61l3.289,5.134h1.144
			l-3.336-5.157L233.487,79.05z M231.807,78.46h-3.523v-4.923h3.44c0.473,0,0.916,0.02,1.311,0.06
			c0.457,0.048,0.869,0.223,1.236,0.526c0.195,0.157,0.361,0.339,0.476,0.539c0.109,0.188,0.189,0.378,0.249,0.564
			c0.047,0.175,0.081,0.342,0.092,0.493c0.017,0.147,0.021,0.262,0.021,0.347c0,0.49-0.13,0.951-0.383,1.367
			c-0.268,0.438-0.725,0.74-1.372,0.897c-0.257,0.062-0.516,0.098-0.779,0.111C232.329,78.457,232.074,78.46,231.807,78.46z"/>
		<rect x="239.043" y="72.848" fill="#E30F6F" width="0.958" height="11.435"/>
		<path fill="#E30F6F" d="M246.946,72.848l-4.353,11.435h1.013l1.354-3.695h5.054l1.32,3.695h1.005l-4.161-11.435H246.946z
			 M245.239,79.879l2.318-6.307l2.209,6.307H245.239z"/>
		<polygon fill="#E30F6F" points="255.919,72.831 254.953,72.831 254.953,84.282 261.766,84.282 261.766,83.509 255.919,83.509 		
			"/>
		<polygon fill="#E30F6F" points="283.23,83.674 279.804,72.848 278.778,72.848 282.632,84.282 283.777,84.282 287.813,72.848 
			286.793,72.848 		"/>
		<rect x="290.406" y="72.848" fill="#E30F6F" width="0.962" height="11.435"/>
		<polygon fill="#E30F6F" points="300.984,78.772 306.868,78.772 306.868,78 300.984,78 300.984,73.623 307.759,73.623 
			307.759,72.848 300.074,72.848 300.074,84.282 307.965,84.282 307.965,83.509 300.984,83.509 		"/>
		<path fill="#E30F6F" d="M319.942,76.628c-0.095-0.393-0.24-0.809-0.429-1.232c-0.186-0.411-0.447-0.802-0.783-1.16
			c-0.33-0.35-0.665-0.619-0.998-0.802c-0.342-0.185-0.69-0.319-1.051-0.406c-0.367-0.087-0.744-0.136-1.132-0.152
			c-0.399-0.018-0.807-0.028-1.222-0.028h-3.458v11.435h3.834c0.245,0,0.532-0.006,0.849-0.017c0.311-0.011,0.638-0.054,0.973-0.13
			c0.332-0.073,0.675-0.196,1.024-0.361c0.339-0.164,0.678-0.395,1.009-0.689c0.371-0.357,0.678-0.759,0.885-1.188
			c0.216-0.442,0.381-0.881,0.479-1.303c0.104-0.425,0.166-0.821,0.19-1.175c0.02-0.367,0.03-0.654,0.03-0.853
			c0-0.212-0.011-0.49-0.03-0.836C320.089,77.398,320.031,77.027,319.942,76.628z M318.966,80.342
			c-0.117,0.503-0.275,0.932-0.477,1.282c-0.193,0.351-0.411,0.643-0.646,0.863c-0.228,0.218-0.464,0.391-0.69,0.517
			c-0.436,0.25-0.888,0.4-1.354,0.453c-0.439,0.046-0.929,0.075-1.466,0.086h-2.142h-0.327v-9.92h2.222
			c0.438,0,0.84,0.008,1.203,0.026c0.389,0.019,0.762,0.083,1.119,0.192c0.524,0.164,0.969,0.412,1.329,0.74
			c0.349,0.319,0.637,0.701,0.848,1.129c0.21,0.42,0.356,0.883,0.441,1.38c0.081,0.488,0.122,0.99,0.122,1.492
			C319.148,79.252,319.093,79.843,318.966,80.342z"/>
		<rect x="323.256" y="72.848" fill="#E30F6F" width="0.96" height="11.435"/>
		<path fill="#E30F6F" d="M336.85,81.817c-0.281,0.484-0.63,0.887-1.026,1.195c-0.389,0.309-0.83,0.536-1.305,0.681
			c-1.198,0.354-2.461,0.244-3.408-0.198c-0.579-0.271-1.07-0.656-1.465-1.14c-0.393-0.481-0.69-1.061-0.887-1.721
			c-0.196-0.647-0.297-1.372-0.297-2.153c0-0.64,0.074-1.28,0.224-1.906c0.15-0.649,0.44-1.24,0.855-1.753
			c0.429-0.551,0.97-0.97,1.598-1.241c0.623-0.268,1.288-0.403,1.978-0.403c0.814,0,1.518,0.159,2.082,0.468
			c0.563,0.304,1.01,0.661,1.333,1.055c0.243,0.285,0.417,0.543,0.52,0.782c0.052,0.129,0.107,0.262,0.155,0.397l0.985-0.207
			c-0.027-0.059-0.055-0.123-0.08-0.191c-0.09-0.213-0.216-0.453-0.385-0.71c-0.162-0.256-0.377-0.519-0.627-0.783
			c-0.25-0.257-0.558-0.499-0.921-0.717c-0.359-0.214-0.796-0.393-1.29-0.53c-0.505-0.132-1.093-0.203-1.757-0.203
			c-0.99,0-1.854,0.165-2.579,0.487c-0.726,0.324-1.329,0.758-1.796,1.293c-0.473,0.544-0.831,1.184-1.066,1.908
			c-0.243,0.732-0.36,1.519-0.36,2.339c0,0.808,0.114,1.587,0.341,2.316c0.231,0.718,0.575,1.362,1.039,1.908
			c0.457,0.542,1.041,0.981,1.736,1.31c0.694,0.326,1.521,0.493,2.462,0.493c0.834,0,1.577-0.131,2.212-0.389
			c0.645-0.26,1.206-0.601,1.674-1.018c0.462-0.421,0.848-0.901,1.139-1.421c0.224-0.416,0.404-0.838,0.524-1.261l-1.092-0.126
			C337.26,80.924,337.089,81.405,336.85,81.817z"/>
		<rect x="340.928" y="72.848" fill="#E30F6F" width="0.968" height="11.435"/>
		<path fill="#E30F6F" d="M354.889,74.086c-0.506-0.497-1.122-0.881-1.819-1.149c-0.701-0.261-1.465-0.399-2.265-0.399
			c-0.712,0-1.428,0.119-2.113,0.344c-0.68,0.224-1.298,0.583-1.836,1.065c-0.54,0.478-0.981,1.105-1.313,1.864
			c-0.334,0.761-0.504,1.684-0.504,2.754c0,0.906,0.137,1.735,0.405,2.47c0.272,0.731,0.654,1.37,1.152,1.895
			c0.488,0.522,1.087,0.933,1.782,1.222c0.696,0.292,1.498,0.439,2.378,0.439c0.952,0,1.802-0.159,2.525-0.473
			c0.714-0.311,1.322-0.741,1.802-1.286c0.479-0.546,0.848-1.196,1.1-1.94c0.243-0.749,0.375-1.574,0.375-2.448
			c0-0.937-0.152-1.779-0.448-2.513C355.817,75.201,355.401,74.581,354.889,74.086z M355.236,80.393
			c-0.15,0.659-0.408,1.259-0.768,1.778c-0.364,0.529-0.848,0.969-1.443,1.298c-0.604,0.333-1.343,0.501-2.2,0.501
			c-0.828,0-1.547-0.159-2.149-0.474c-0.592-0.312-1.085-0.729-1.47-1.238c-0.376-0.506-0.648-1.09-0.818-1.727
			c-0.171-0.63-0.254-1.282-0.254-1.95c0-0.708,0.085-1.392,0.261-2.027c0.175-0.646,0.457-1.227,0.834-1.716
			c0.381-0.503,0.878-0.906,1.465-1.199c0.591-0.295,1.299-0.444,2.111-0.444c0.735,0,1.405,0.128,1.979,0.386
			c0.58,0.258,1.071,0.633,1.469,1.105c0.392,0.473,0.692,1.036,0.902,1.676c0.198,0.633,0.304,1.342,0.304,2.1
			C355.459,79.101,355.382,79.75,355.236,80.393z"/>
		<polygon fill="#E30F6F" points="367.92,83.276 360.865,72.848 359.856,72.848 359.856,84.282 360.711,84.282 360.563,73.704 
			367.693,84.282 368.65,84.282 368.65,72.848 367.845,72.848 		"/>
		<path fill="#E30F6F" d="M270.052,76.974c-0.827,0-1.499,0.675-1.499,1.505c0,0.831,0.672,1.506,1.499,1.506
			c0.834,0,1.505-0.675,1.505-1.506C271.557,77.648,270.886,76.974,270.052,76.974z"/>
	</g>
</g>
</svg>
