<?xml version="1.0" encoding="utf-8"?>
<!-- Generator: Adobe Illustrator 16.0.0, SVG Export Plug-In . SVG Version: 6.00 Build 0)  -->
<!DOCTYPE svg PUBLIC "-//W3C//DTD SVG 1.1//EN" "http://www.w3.org/Graphics/SVG/1.1/DTD/svg11.dtd">
<svg version="1.1" id="Capa_1" xmlns="http://www.w3.org/2000/svg" xmlns:xlink="http://www.w3.org/1999/xlink" x="0px" y="0px"
	 width="406.194px" height="185.841px" viewBox="0 0 406.194 185.841" enable-background="new 0 0 406.194 185.841"
	 xml:space="preserve">
<g>
	<path fill="#E1027A" d="M11.958,91.705v-24.69h2.279v22.44h4.41v2.25H11.958z"/>
	<path fill="#E1027A" d="M25.098,67.014h2.279v20.761c0,2.8-1.29,4.199-3.87,4.199s-3.87-1.399-3.87-4.199V67.014h2.28v20.761
		c0,1.3,0.53,1.949,1.59,1.949c1.061,0,1.591-0.649,1.591-1.949V67.014z"/>
	<path fill="#E1027A" d="M36.797,91.855l-0.75-1.351c-0.24,0.48-0.631,0.846-1.17,1.095c-0.54,0.25-1.15,0.375-1.83,0.375
		c-0.54,0-1.035-0.07-1.485-0.21s-0.84-0.375-1.17-0.704c-0.33-0.33-0.59-0.766-0.78-1.306s-0.285-1.2-0.285-1.979V70.974
		c0-1.38,0.32-2.43,0.96-3.149c0.641-0.72,1.62-1.08,2.94-1.08s2.274,0.36,2.865,1.08c0.59,0.72,0.885,1.77,0.885,3.149v4.351h-2.04
		v-4.351c0-0.64-0.13-1.119-0.39-1.439c-0.261-0.319-0.701-0.48-1.32-0.48c-0.58,0-0.995,0.161-1.245,0.48
		c-0.25,0.32-0.375,0.8-0.375,1.439v16.801c0,0.64,0.15,1.125,0.45,1.455s0.68,0.494,1.14,0.494c1.08,0,1.67-0.589,1.771-1.77v-5.61
		h-1.891v-2.159h4.08v11.67H36.797z"/>
	<path fill="#E1027A" d="M45.407,91.705l-0.54-4.14h-3.689l-0.54,4.14h-2.22l3.39-24.69h2.67l3.21,24.69H45.407z M44.597,85.464
		c-0.26-2.119-0.521-4.215-0.78-6.285c-0.26-2.069-0.51-4.194-0.75-6.375c-0.26,2.181-0.524,4.306-0.795,6.375
		c-0.27,2.07-0.545,4.166-0.825,6.285H44.597z"/>
	<path fill="#E1027A" d="M55.006,91.705c-0.261-1.939-0.53-3.825-0.811-5.655s-0.59-3.685-0.93-5.564
		c-0.101,0.02-0.19,0.029-0.271,0.029s-0.17,0-0.27,0h-1.23v11.19h-2.279v-24.69h3.75c1.439,0,2.515,0.336,3.225,1.006
		s1.065,1.814,1.065,3.435v4.92c0,1.8-0.61,3.011-1.83,3.63c0.399,2,0.77,3.966,1.109,5.896s0.66,3.865,0.96,5.805H55.006z
		 M54.946,71.754c0-0.899-0.13-1.53-0.39-1.89c-0.261-0.36-0.79-0.54-1.59-0.54h-1.471v9.12h1.5c0.7,0,1.2-0.165,1.5-0.495
		c0.301-0.33,0.45-0.845,0.45-1.545V71.754z"/>
	<path fill="#E1027A" d="M58.996,80.724v-3.72h2.13v3.72H58.996z M58.996,91.705v-3.75h2.13v3.75H58.996z"/>
</g>
<g>
	<g>
		<g>
			<g>
				<path fill="#E1027A" d="M108.544,64.371v17.589c0,7.455-2.218,10.302-10.162,10.302c-2.218,0-5.751-0.524-5.751-3.47
					c0-1.705,1.348-2.668,2.803-2.668c2.811,0,2.673,3.64,4.96,3.64c3.027,0,2.673-3.678,2.673-5.724V64.371
					c0-3.529-0.556-4.681-4.198-4.681v-1.276h13.876v1.276C109.101,59.69,108.544,60.841,108.544,64.371z"/>
				<path fill="#E1027A" d="M131.676,92.261c-2.323,0-3.464-1.183-3.815-3.401c-1.871,2.047-3.949,3.401-7.008,3.401
					c-3.042,0-6.416-2.184-6.416-5.619c0-6.556,8.432-7.388,13.222-7.774v-2.352c0-2.604,0.202-6.593-3.439-6.593
					c-4.888,0-1.488,6.036-6.102,6.036c-1.492,0-2.807-0.831-2.807-2.6c0-4.062,6.102-5.031,9.255-5.031
					c5.831,0,8.259,2.15,8.259,8.188v9.81c0,1.81,0,4.129,2.186,4.129c0.657,0,1.351-0.173,1.976-0.309v1.28
					C135.111,92.053,133.623,92.261,131.676,92.261z M127.659,80.779c-3.093,0.072-7.767,0.836-7.767,5.126
					c0,1.809,0.928,3.548,3.023,3.548c3.353,0,4.744-2.672,4.744-5.827V80.779z"/>
				<path fill="#E1027A" d="M152.762,73.745c-1.626,0-1.456-1.217-2.977-1.217c-0.592,0-1.148,0.236-1.423,0.728
					c-1.871,1.873-2.463,4.958-2.463,7.456v5.546c0,3.126,0.556,4.479,3.854,4.479v0.968h-12.662v-0.968
					c3.294,0,3.847-1.354,3.847-4.479V74.571c0-2.738-1.109-4.021-3.847-4.021v-1.181l8.808-1.04v5.686h0.072
					c1.218-2.942,3.255-5.686,6.792-5.686c1.557,0,2.709,1.008,2.709,2.429C155.472,72.494,154.5,73.745,152.762,73.745z"/>
				<path fill="#E1027A" d="M172.512,92.261v-4.095h-0.08c-1.665,2.74-3.677,4.095-7.109,4.095c-7.106,0-8.572-6.246-8.572-12.075
					c0-6.242,2.153-11.857,9.472-11.857c2.847,0,4.754,1.074,6.21,3.538h0.08v-8.632c0-2.748-0.914-4.064-3.652-4.026v-0.972
					l8.808-1.248v29.026c0,2.745,0.863,4.063,3.645,4.026v0.968L172.512,92.261z M167.541,70.617c-4.682,0-5.339,6.14-5.339,9.569
					c0,3.782,0.556,9.267,5.339,9.267c4.722,0,4.971-5.795,4.971-9.267C172.512,76.651,172.396,70.617,167.541,70.617z"/>
				<path fill="#E1027A" d="M181.937,91.705v-0.968c3.291,0,3.847-1.322,3.847-4.479V74.571c0-2.738-1.109-4.021-3.847-4.021v-1.181
					l8.804-1.04v17.929c0,3.157,0.556,4.479,3.858,4.479v0.968H181.937z"/>
				<path fill="#E1027A" d="M209.916,91.705v-0.968c3.233,0,3.789-1.354,3.789-4.479v-7.39c0-1.035-0.035-2.281-0.104-3.502
					c-0.384-2.079-0.59-4.092-3.154-4.092c-3.013,0-6.105,5.519-6.105,8.257v6.727c0,3.126,0.553,4.479,3.851,4.479v0.968h-12.665
					v-0.968c3.294,0,3.854-1.354,3.854-4.479V74.571c0-2.738-1.113-4.021-3.854-4.021v-1.181l8.814-1.04v5.752h0.069
					c1.871-3.266,4.335-5.752,8.392-5.752c4.512,0,5.859,2.221,5.859,6.484v11.444c0,3.126,0.561,4.479,3.852,4.479v0.968H209.916z"
					/>
			</g>
			<g>
				<path fill="#E1027A" d="M239.982,77.405v8.846c0,3.502,0.352,4.712,4.203,4.684v1.283H230.1v-1.283
					c3.848,0.028,4.197-1.182,4.197-4.684V64.883c0-3.708-0.35-4.716-4.197-4.678v-1.283h14.186c6.135,0,11.518,2.08,11.518,9.048
					C255.803,77.509,246.959,77.405,239.982,77.405z M242.936,61.137c-2.844,0-2.953,1.048-2.953,3.746v10.303h1.633
					c5.344,0,8.566-1.11,8.566-7.216C250.182,62.629,247.859,61.137,242.936,61.137z"/>
				<path fill="#E1027A" d="M257.117,92.217v-1.181c3.299,0,3.639-1.317,3.639-4.269V63.741c0-2.738-0.896-4.023-3.639-4.023v-1.181
					l8.811-1.039v29.271c0,2.916,0.557,4.269,3.639,4.269v1.181H257.117z"/>
				<path fill="#E1027A" d="M288.922,92.769c-2.527,0-3.641-1.178-3.984-3.397c-1.91,2.048-3.992,3.397-6.834,3.397
					c-3.264,0-6.627-2.394-6.627-5.829c0-6.342,8.639-7.384,13.426-7.554v-2.57c0-2.392,0.035-6.378-3.436-6.378
					c-5.098,0-1.703,6.035-6.102,6.035c-1.703,0-2.953-1.045-2.953-2.609c0-4.053,6.037-5.236,9.195-5.236
					c6.033,0,8.254,2.152,8.254,8.188v10.021c0,1.598,0,4.126,2.309,4.126c0.535,0,1.309-0.168,1.854-0.517v1.282
					C292.357,92.353,290.66,92.769,288.922,92.769z M284.902,81.293c-3.295,0.063-7.98,0.829-7.98,4.957
					c0,1.976,1.148,3.502,3.229,3.502c3.363,0,4.752-2.67,4.752-5.621V81.293z"/>
				<path fill="#E1027A" d="M314.033,92.217h-18.9v-2.533l12.834-18.379h-4.439c-1.008,0-2.258,0-3.439,0.13
					c-2.186,0.458-2.77,1.631-3.051,3.714h-1.627l0.416-5.961h17.586v2.247l-12.869,18.35h6.377c3.197,0,5.137-0.171,5.871-3.534
					h1.416L314.033,92.217z"/>
				<path fill="#E1027A" d="M334.082,92.769c-2.322,0-3.467-1.178-3.854-3.397c-1.832,2.048-3.912,3.397-6.965,3.397
					c-3.057,0-6.42-2.394-6.42-5.829c0-6.342,8.428-7.384,13.223-7.554v-2.57c0-2.392,0.162-6.378-3.443-6.378
					c-4.889,0-1.492,6.035-6.105,6.035c-1.488,0-2.807-1.045-2.807-2.609c0-4.053,6.109-5.236,9.258-5.236
					c5.947,0,8.26,2.152,8.26,8.188v10.021c0,1.598,0,4.126,2.182,4.126c0.656,0,1.354-0.168,1.977-0.517v1.282
					C337.518,92.353,336.025,92.769,334.082,92.769z M330.066,81.293c-3.098,0.063-7.775,0.829-7.775,4.957
					c0,1.976,0.932,3.502,3.018,3.502c3.363,0,4.758-2.67,4.758-5.621V81.293z"/>
			</g>
			<path fill="#E1027A" d="M185.961,66.301c-0.13-0.02,4.19-6.195,9.23-9.818c0,0,2.294-1.811,2.399,0.566
				c0.292,2.076-0.239,4.807-2.313,6.819C193.389,65.698,190.762,67.015,185.961,66.301z"/>
			<path fill="#E1027A" d="M331.572,61.005c0.26,0.591-24.049,0.029-41.895-6.625c0,0-9.545-2.771-3.316-7.624
				c5.332-4.106,13.436-7.93,22.426-5.984C316.711,42.54,324.701,46.893,331.572,61.005z"/>
			<path fill="#E1027A" d="M335.025,56.792c-0.328,0.397-16.676-17.424-24.244-34.996c0,0-4.639-8.839,3.336-7.617
				c6.613,0.893,14.9,4.208,19.748,12.167C338.049,33.16,340.502,42.072,335.025,56.792z"/>
			<path fill="#E1027A" d="M340.191,56.116c-0.469,0.168,0.578-24.13,7.594-41.862c0,0,3.078-9.497,7.828-2.979
				c4.021,5.402,7.492,13.568,5.4,22.525C359.111,41.514,354.41,49.546,340.191,56.116z"/>
			<path fill="#E1027A" d="M344.277,59.519c-0.459-0.357,17.264-16.847,34.582-24.771c0,0,8.805-4.51,7.844,3.266
				c-1.029,6.694-4.078,14.947-11.99,19.876C367.939,62.323,359.045,64.643,344.277,59.519z"/>
			<path fill="#E1027A" d="M344.961,64.298c-0.178-0.598,24.127,0.092,41.938,6.842c0,0,9.533,2.819,3.275,7.638
				c-5.35,4.074-13.475,7.856-22.451,5.868C359.779,82.838,351.693,78.232,344.961,64.298z"/>
			<path fill="#E1027A" d="M341.982,68.629c0.135-0.61,17.178,16.75,25.488,33.885c0,0,5.035,8.715-2.959,7.918
				c-6.705-0.706-15.014-3.793-20.285-11.399C339.855,92.333,337.146,83.496,341.982,68.629z"/>
		</g>
	</g>
	<g>
		<path fill="#E1027A" d="M144.919,158.08c4.093,1.548,10.396,0.795,15.805-3.847c3.255-2.706,8.085-8.969,6.141-13.761
			c-0.26-0.853-1.261-0.774-1.521,0.046c-5.885,12.105-13.97,18.248-18.803,14.938c-3.62-2.581-4.357-13.602,2.156-25.637
			c7.03-12.203,18.42-19.827,20.689-17.826c1.629,1.509-1.102,6.212-2.363,10.354c-0.997,3.979,0.094,6.114,1.889,7.156
			c0.842,0.331,1.42-0.03,1.785-0.679c0.792-2.435,1.738-5.411,2.944-7.979c1.21-2.568,1.366-4.682,0.683-6.759
			c-0.632-1.855-2.258-3.65-4.042-4.908c-2.312-1.865-6.148-1.098-10.241,1.216c-8.609,4.312-21.954,19.866-21.744,35.739
			C138.402,152.292,141.502,156.725,144.919,158.08z"/>
		<path fill="#E1027A" d="M187.399,120.28c0.997,0.396,2.42,0.313,3.988-0.634c1.998-0.813,6.044-3.544,8.775-5.106
			c0.733-0.54,0.628-1.053,0-1.257c-1.207-0.573-3.367-0.68-5.412,0.56c-1.943,0.961-5.043,3.569-7.269,5.389
			C186.716,119.663,186.973,120.128,187.399,120.28z"/>
		<path fill="#E1027A" d="M174.903,155.822c4.198-0.332,8.24-4.631,10.921-8.596c-0.632,4.346,1.365,7.354,6.25,6.683
			c3.8-0.556,7.496-3.757,10.046-7.293c1.409,3.305,4.675,4.978,9.437,4.268c4.334-0.666,8.977-3.471,12.231-6.932
			c0.116,2.749,1.46,4.754,4.78,4.605c4.201-0.4,8.246-4.7,10.928-8.666c-0.637,4.557,1.361,7.354,6.246,6.683
			c3.764-0.553,7.42-3.484,9.975-6.99c0.83,3.12,3.471,4.89,6.354,4.462c3.992-0.268,7.459-3.552,9.848-6.363
			c0.672,2.895,2.721,4.73,5.805,4.215c3.779-0.551,7.193-3.643,9.502-7.273c0,3.716,2.229,5.82,6.379,5.379
			c4.18-0.232,8.957-5.024,10.951-9.553c0.895-2.184,0.895-4.12,0.686-4.774c-0.422-0.653-0.994-0.549-1.262,0.378
			c-2.676,5.534-6.826,11.155-10.027,11.762c-2.631,0.557-2.398-2.747-0.637-7.318c1.895-4.2,5.781-10.365,7.355-13.92
			c1.891-4.044,1.262-7.284,0.051-8.537c-0.578-0.631-1.098-0.257-1.803,0.693c-0.877,1.334-1.713,3.148-2.814,5.124
			c0.314-3.104-1.361-5.313-4.469-4.796c-3.883,0.353-9.924,4.74-16.068,14.418c-2.055,3.307-3.322,6.354-3.656,9.338
			c-2.705,4.827-6.273,8.947-9.154,9.124c-3.049,0.406-4.045-4.225-1.473-10.164c2.836-6.759,7.301-14.538,10.191-19.997
			c1.939-0.598,4.197-1.187,5.984-1.186c1.066-0.104,1.416-0.713,0.84-1.497c-0.629-1.044-1.631-2.084-4.73-1.759
			c1.895-4.146,1.895-6.711,1.109-8.712c-0.473-0.812-1.209-0.795-1.893,0.37c-1.311,1.893-3.41,5.604-5.834,10.17
			c-2.088,0.556-4.195,0.859-6.297,1.008c-1.076,0.266-1.521,0.699-0.787,1.754c0.629,0.726,2.258,1.555,4.883,1.314
			c-3.309,6.322-6.354,13.108-8.088,17.131c-0.34,1.273-0.783,2.492-0.943,3.448c-2.795,5.211-6.264,9.862-9.299,10.228
			c-2.73,0.57-2.936-2.645-0.938-7.066c1.625-4.088,5.512-10.251,7.088-14.021c1.893-4.042,1.256-7.131,0.049-8.378
			c-0.422-0.675-0.992-0.52-1.73,0.705c-2.523,3.521-4.674,9.012-9.453,17.521c-4.094,7.026-8.244,12.966-11.344,13.087
			c-1.629,0.058-1.998-2.641-0.264-6.611c1.521-3.705,2.995-6.986,5.781-11.803c2.73-4.703,3.195-8.141,1.494-10.55
			c-0.502-0.412-1.383-0.39-1.867,0.45c-5.094,7.524-8.822,15.529-10.606,20.602c-0.05,0.378-0.098,0.542-0.145,0.707
			c-3.28,4.648-7.987,9.463-13.353,10.129c-4.356,0.578-6.09-5.5-1.766-14.521c3.446-7.386,9.067-12.943,10.383-12.124
			c0.949,0.687-1.266,4.196-2.049,6.994c-1.16,3.712,0,5.809,1.886,6.476c0.896,0.271,1.112,0.087,1.524-0.78
			c1.475-4.431,4.624-8.744,2.887-11.84c-0.835-1.534-2.096-2.663-4.145-3.531c-3.883-1.63-11.501,3.379-16.335,13.566
			c-1.528,3.395-2.248,6.678-2.2,9.431c-2.691,4.62-5.892,8.347-8.562,8.891c-2.731,0.572-2.937-2.645-0.946-7.277
			c1.625-4.088,5.516-10.251,7.088-13.808c1.893-4.044,1.264-7.335,0.058-8.576c-0.455-0.688-1-0.323-1.737,0.688
			c-2.518,3.735-4.671,9.227-9.451,17.519c-4.097,7.244-8.273,12.97-11.347,13.302c-1.625,0.06-1.994-2.639-0.26-6.609
			c1.524-3.916,2.991-6.986,5.78-12.017c2.728-4.492,3.201-8.138,1.413-10.336c-0.419-0.623-1.362-0.605-1.785,0.448
			c-5.094,7.526-8.822,15.319-10.606,20.604C169.387,150.606,169.492,156.136,174.903,155.822z M280.766,125.72
			c4.15-7.138,9.664-12.945,12.156-13.014c2.182-0.053,1.498,4.72-3.277,13.645c-3.941,7.272-7.934,12.667-10.928,12.903
			C275.621,139.692,276.723,132.904,280.766,125.72z"/>
		<path fill="#E1027A" d="M313.617,148.555c-14.291,0.042-31.953,0.86-54.225,2.883c-13.17,1.25-28.488,2.816-45.842,5.136
			c-10.126,1.085-21.051,2.511-33.066,4.276c-6.293,0.817-12.991,1.897-19.905,2.804c-3.761,0.571-7.362,1.158-11.246,1.745
			c-1.448,0.164-5.516,0.974-8.713,1.476c-0.303-0.397-0.841-0.563-1.488-0.7c-0.199-0.063-0.61-0.342-0.809-0.405
			c-1.427-0.317-4.068-0.213-5.527,0.37c-3.146,0.957-3.984,1.726-4.19,3.559c-0.321,0.833,1.022,1.913,2.785,2.124
			c4.743,0.827,8.067,0.412,12.933-0.578c7.623-1.312,15.006-2.345,21.939-3.547c13.012-2.085,25.063-3.979,36.024-5.522
			c20.819-3.162,38.473-5.362,53.581-7.165c23.76-2.468,42.549-3.748,57.52-4.182C314.744,150.808,314.982,148.55,313.617,148.555z"
			/>
	</g>
</g>
</svg>
