<?xml version="1.0" encoding="utf-8"?>
<!-- Generator: Adobe Illustrator 16.0.0, SVG Export Plug-In . SVG Version: 6.00 Build 0)  -->
<!DOCTYPE svg PUBLIC "-//W3C//DTD SVG 1.1//EN" "http://www.w3.org/Graphics/SVG/1.1/DTD/svg11.dtd">
<svg version="1.1" id="Capa_1" xmlns="http://www.w3.org/2000/svg" xmlns:xlink="http://www.w3.org/1999/xlink" x="0px" y="0px"
	 width="861.765px" height="227.941px" viewBox="0 0 861.765 227.941" enable-background="new 0 0 861.765 227.941"
	 xml:space="preserve">
<g>
	<path fill="#FFFFFF" d="M368.601,94.918c0-5.422-1.002-10.631-2.922-15.718c-1.921-5.093-4.777-9.685-8.343-13.7
		c-3.621-4.055-7.962-7.252-13.032-9.689c-5.098-2.426-10.71-3.629-16.961-3.629c-6.031,0-11.638,1.114-16.773,3.434
		c-5.104,2.354-9.536,5.469-13.266,9.309c-3.719,3.94-6.619,8.436-8.652,13.578c-0.285,0.685-0.543,1.381-0.785,2.073
		c-0.128-3.166-0.778-6.34-2.018-9.513c-1.414-3.475-3.299-6.583-5.719-9.306c-2.395-2.699-5.314-4.882-8.701-6.637
		c-3.343-1.642-7.068-2.474-11.057-2.474h-34.051h-1.223h-23.047l-14.89,26.403l-14.88-26.403h-24.291l27.336,42.444l-26.416,41.363
		h24.297l13.954-25.275l13.956,25.275h23.98h0.26h22.209v-25.77h13.411c3.96,0,7.667-0.781,10.999-2.379
		c3.303-1.648,6.184-3.807,8.52-6.496c2.146-2.454,3.778-5.229,5.066-8.335c-0.006,0.316-0.02,0.63-0.02,0.946
		c0,5.438,0.938,10.674,2.924,15.818c2.032,5.125,4.876,9.671,8.428,13.642c3.635,3.947,7.99,7.175,13.031,9.632
		c5.07,2.436,10.738,3.672,16.947,3.672c6.066,0,11.665-1.197,16.785-3.576c5.078-2.385,9.518-5.494,13.21-9.346
		c3.665-3.947,6.507-8.435,8.632-13.479C367.599,105.698,368.601,100.416,368.601,94.918z M225.099,136.052L198.923,95.09
		l26.176-40.558V136.052z M263.28,88.683c-1.172,1.279-2.47,1.963-3.818,1.963h-11.895V72.677h11.281
		c1.411,0,2.75,0.641,4.169,1.882c1.428,1.277,2.05,3.67,2.05,7.108C265.067,85.017,264.493,87.409,263.28,88.683z M344.698,102.578
		c-0.768,2.644-1.855,5.029-3.322,7.109c-1.539,2.097-3.461,3.747-5.861,5.132c-2.412,1.277-5.125,1.918-8.427,1.918
		c-3.218,0-5.979-0.641-8.331-1.918c-2.338-1.244-4.305-2.896-5.809-4.958c-1.545-2.022-2.752-4.392-3.474-7.009
		c-0.747-2.63-1.171-5.358-1.171-8.22c0-2.742,0.381-5.399,1.115-8.071c0.732-2.656,1.904-4.984,3.395-7.085
		c1.555-2.086,3.474-3.727,5.824-5.008c2.344-1.287,5.146-1.922,8.338-1.922c3.158,0,5.965,0.636,8.266,1.837
		c2.377,1.226,4.311,2.843,5.844,4.844c1.596,2.02,2.775,4.314,3.559,6.982c0.776,2.656,1.137,5.359,1.137,8.209
		C345.78,97.218,345.42,99.857,344.698,102.578z"/>
	<path fill="#FFFFFF" d="M449.425,64.925c-3.457-3.802-7.734-6.789-12.855-8.987c-5.188-2.208-11.168-3.292-17.908-3.292h-31.482
		v83.807h31.482c6.225,0,11.879-1.007,16.912-3.019c5.086-2.024,9.467-4.857,13.039-8.486c3.672-3.658,6.393-8.136,8.373-13.254
		c1.971-5.134,2.955-10.906,2.955-17.275c0-5.736-0.885-11.144-2.648-16.237C455.536,73.09,452.897,68.699,449.425,64.925z
		 M435.897,103.174c-0.777,2.64-1.982,4.943-3.549,6.959c-1.646,1.922-3.566,3.482-5.846,4.588
		c-2.301,1.104-4.912,1.646-7.842,1.646h-9.027v-43.69h9.027c2.893,0,5.42,0.504,7.766,1.612c2.277,1.049,4.199,2.568,5.738,4.393
		c1.59,1.942,2.873,4.212,3.684,6.879c0.84,2.666,1.258,5.634,1.258,8.858C437.106,97.581,436.688,100.46,435.897,103.174z"/>
	<polygon fill="#FFFFFF" points="485.259,103.174 514.976,103.174 514.976,84.515 485.259,84.515 485.259,72.677 520.099,72.677 
		520.099,52.646 462.813,52.646 462.813,136.453 521.155,136.453 521.155,116.367 485.259,116.367 	"/>
	<polygon fill="#FFFFFF" points="561.366,136.453 583.817,136.453 583.817,72.677 607.364,72.677 607.364,52.646 537.698,52.646 
		537.698,72.677 561.366,72.677 	"/>
	<path fill="#FFFFFF" d="M674.132,124.261c3.768-3.947,6.596-8.435,8.689-13.479c2.037-5.084,3.096-10.367,3.096-15.864
		c0-5.422-0.961-10.631-2.943-15.718c-1.951-5.093-4.713-9.685-8.387-13.7c-3.6-4.055-7.873-7.252-12.99-9.689
		c-5.072-2.426-10.699-3.629-16.896-3.629c-6.109,0-11.74,1.114-16.779,3.434c-5.127,2.357-9.549,5.469-13.287,9.309
		c-3.682,3.94-6.605,8.436-8.691,13.578c-2.09,5.095-3.135,10.363-3.135,15.916c0,5.438,0.996,10.674,2.994,15.818
		c2.059,5.125,4.773,9.671,8.457,13.642c3.572,3.947,7.887,7.175,13.004,9.632c5.047,2.436,10.734,3.672,16.963,3.672
		c6.074,0,11.668-1.197,16.787-3.576C666.069,131.222,670.462,128.112,674.132,124.261z M652.851,114.819
		c-2.391,1.277-5.227,1.918-8.426,1.918c-3.195,0-5.992-0.641-8.346-1.918c-2.393-1.244-4.301-2.896-5.828-4.958
		c-1.512-2.022-2.693-4.392-3.406-7.009c-0.834-2.63-1.225-5.358-1.225-8.22c0-2.742,0.391-5.399,1.096-8.071
		c0.744-2.656,1.891-4.984,3.408-7.085c1.545-2.086,3.488-3.727,5.875-5.008c2.301-1.287,5.117-1.922,8.336-1.922
		c3.137,0,5.857,0.636,8.264,1.837c2.279,1.226,4.244,2.849,5.852,4.844c1.551,2.02,2.768,4.314,3.479,6.982
		c0.797,2.656,1.207,5.359,1.207,8.209c0,2.8-0.377,5.438-1.111,8.159c-0.727,2.644-1.824,5.029-3.389,7.109
		C657.161,111.784,655.229,113.435,652.851,114.819z"/>
	<path fill="#FFFFFF" d="M839.87,79.2c-1.967-5.093-4.721-9.685-8.395-13.7c-3.561-4.055-7.928-7.252-12.99-9.689
		c-5.084-2.426-10.758-3.629-16.955-3.629c-6.098,0-11.684,1.114-16.773,3.434c-5.08,2.357-9.523,5.469-13.236,9.309
		c-3.773,3.94-6.615,8.436-8.701,13.578c-0.963,2.348-1.691,4.737-2.221,7.171c-0.455-2.574-1.096-5.068-1.916-7.492
		c-1.801-5.092-4.393-9.483-7.834-13.257c-3.51-3.802-7.77-6.789-12.924-8.987c-5.186-2.206-11.105-3.292-17.84-3.292H688.56v83.807
		h31.525c6.23,0,11.814-1.007,16.895-3.019c5.096-2.024,9.402-4.857,13.084-8.486c3.564-3.658,6.313-8.136,8.322-13.254
		c0.992-2.625,1.734-5.409,2.236-8.355c0.508,2.322,1.182,4.621,2.063,6.898c1.996,5.125,4.795,9.671,8.404,13.642
		c3.648,3.947,7.943,7.175,13.016,9.632c5.096,2.436,10.746,3.672,16.973,3.672c6.105,0,11.668-1.197,16.748-3.576
		c5.115-2.385,9.5-5.494,13.182-9.346c3.684-3.947,6.609-8.435,8.684-13.479c2.059-5.084,3.115-10.367,3.115-15.864
		C842.806,89.497,841.854,84.287,839.87,79.2z M737.321,103.174c-0.826,2.64-2.027,4.943-3.615,6.959
		c-1.572,1.922-3.543,3.482-5.844,4.588c-2.303,1.104-4.896,1.646-7.777,1.646h-8.996v-43.69h8.996c2.834,0,5.383,0.504,7.691,1.612
		c2.283,1.049,4.221,2.568,5.809,4.393c1.594,1.944,2.813,4.212,3.637,6.879c0.828,2.666,1.277,5.634,1.277,8.858
		C738.499,97.581,738.077,100.46,737.321,103.174z M818.909,102.578c-0.727,2.644-1.85,5.029-3.393,7.109
		c-1.479,2.097-3.443,3.747-5.768,5.132c-2.385,1.277-5.244,1.918-8.459,1.918c-3.17,0-5.992-0.641-8.322-1.918
		c-2.385-1.244-4.309-2.896-5.82-4.958c-1.559-2.022-2.721-4.392-3.49-7.009c-0.771-2.63-1.152-5.358-1.152-8.22
		c0-2.742,0.381-5.399,1.096-8.071c0.75-2.656,1.855-4.984,3.412-7.085c1.561-2.086,3.486-3.727,5.797-5.008
		c2.371-1.287,5.164-1.922,8.422-1.922c3.115,0,5.867,0.636,8.205,1.837c2.313,1.226,4.309,2.849,5.902,4.844
		c1.551,2.02,2.693,4.314,3.506,6.982c0.764,2.656,1.107,5.359,1.107,8.209C819.952,97.219,819.644,99.857,818.909,102.578z"/>
	<path fill="#FFFFFF" d="M24.771,207.742l57.807-21.87l56.338,21.87V14.198H24.771V207.742z M45.061,40.577h77.445V68.23H75.451
		v16.263h40.194v25.692H75.451v18.216h48.456v27.66H45.061V40.577z"/>
	<polygon fill="#FFFFFF" points="759.616,148.2 757.772,148.2 756.522,151.407 757.354,151.407 	"/>
	<polygon fill="#FFFFFF" points="188.61,180.108 190.698,180.108 190.698,167.753 203.139,167.753 203.139,166.065 190.698,166.065 
		190.698,156.888 204.065,156.888 204.065,155.198 188.61,155.198 	"/>
	<polygon fill="#FFFFFF" points="211.77,168.124 224.569,168.124 224.569,166.442 211.77,166.442 211.77,156.919 226.509,156.919 
		226.509,155.237 209.784,155.237 209.784,180.108 226.954,180.108 226.954,178.427 211.77,178.427 	"/>
	<path fill="#FFFFFF" d="M246.605,168.727c0.302-0.046,0.778-0.163,1.433-0.333c0.588-0.17,1.211-0.477,1.835-0.938
		c0.61-0.446,1.165-1.091,1.649-1.922c0.461-0.805,0.698-1.928,0.698-3.332c0-1.113-0.2-2.174-0.597-3.141
		c-0.382-0.927-1.014-1.723-1.869-2.362c-0.473-0.358-0.949-0.635-1.424-0.825c-0.484-0.185-1.023-0.33-1.599-0.418
		c-0.608-0.1-1.271-0.156-1.96-0.182c-0.725-0.021-1.545-0.037-2.455-0.037h-9.046v24.871h2.013v-11.17h7.866l7.146,11.17h2.495
		l-7.258-11.219L246.605,168.727z M242.949,167.446h-7.665v-10.709h7.484c1.026,0,1.995,0.043,2.859,0.131
		c0.983,0.104,1.883,0.484,2.682,1.145c0.433,0.342,0.783,0.738,1.033,1.172c0.242,0.409,0.424,0.824,0.541,1.225
		c0.112,0.393,0.178,0.756,0.208,1.081c0.028,0.304,0.038,0.562,0.038,0.749c0,1.066-0.276,2.068-0.828,2.973
		c-0.578,0.953-1.582,1.609-2.977,1.953c-0.572,0.133-1.139,0.213-1.705,0.242C244.093,167.435,243.536,167.446,242.949,167.446z"/>
	<rect x="258.691" y="155.237" fill="#FFFFFF" width="2.095" height="24.871"/>
	<path fill="#FFFFFF" d="M275.892,155.237l-9.475,24.871h2.207l2.943-8.037h10.996l2.869,8.037h2.18l-9.05-24.871H275.892z
		 M272.167,170.532l5.042-13.723l4.807,13.723H272.167z"/>
	<polygon fill="#FFFFFF" points="306.752,168.124 319.554,168.124 319.554,166.442 306.752,166.442 306.752,156.919 
		321.492,156.919 321.492,155.237 304.769,155.237 304.769,180.108 321.937,180.108 321.937,178.427 306.752,178.427 	"/>
	<polygon fill="#FFFFFF" points="349.632,180.108 351.669,180.108 351.669,155.237 350.179,155.237 	"/>
	<polygon fill="#FFFFFF" points="327.886,155.237 327.886,180.108 329.888,180.108 329.46,155.237 	"/>
	<polygon fill="#FFFFFF" points="348.356,155.237 339.759,178.081 331.188,155.237 329.527,155.237 338.868,180.108 
		340.608,180.108 349.979,155.237 	"/>
	<path fill="#FFFFFF" d="M377.042,158.097c-0.329-0.549-0.755-1.039-1.256-1.461c-0.506-0.412-1.111-0.746-1.799-0.995
		c-0.617-0.198-1.271-0.316-1.92-0.347c-0.709-0.035-1.383-0.057-2.018-0.057h-10.641v24.871h1.975v-11.133h8.299
		c0.782,0,1.507-0.015,2.178-0.051c0.621-0.035,1.238-0.145,1.82-0.323c0.768-0.241,1.439-0.597,1.986-1.06
		c0.558-0.462,1.01-1.002,1.354-1.598c0.341-0.604,0.602-1.252,0.763-1.932c0.157-0.682,0.237-1.366,0.237-2.034
		c0-0.715-0.077-1.409-0.237-2.068C377.624,159.263,377.378,158.653,377.042,158.097z M375.599,164.016
		c-0.232,0.726-0.611,1.356-1.134,1.884c-0.706,0.704-1.503,1.119-2.367,1.241c-0.747,0.104-1.657,0.154-2.696,0.154h-8.018v-10.444
		h8.799c0.648,0,1.309,0.043,1.968,0.131c0.767,0.111,1.493,0.455,2.165,1.043c0.724,0.606,1.191,1.318,1.377,2.102
		c0.162,0.691,0.234,1.269,0.234,1.775C375.927,162.617,375.821,163.331,375.599,164.016z"/>
	<path fill="#FFFFFF" d="M397.079,168.727c0.307-0.046,0.784-0.163,1.432-0.333c0.596-0.17,1.209-0.477,1.832-0.938
		c0.611-0.446,1.169-1.091,1.65-1.923c0.471-0.804,0.705-1.926,0.705-3.331c0-1.115-0.199-2.176-0.596-3.141
		c-0.385-0.927-1.018-1.723-1.873-2.362c-0.473-0.358-0.949-0.635-1.428-0.825c-0.48-0.185-1.015-0.33-1.595-0.418
		c-0.609-0.1-1.271-0.156-1.96-0.182c-0.725-0.021-1.546-0.037-2.452-0.037h-9.05v24.871h2.021v-11.17h7.855l7.146,11.17h2.497
		l-7.26-11.219L397.079,168.727z M393.43,167.446h-7.663v-10.709h7.473c1.035,0,2,0.043,2.867,0.131
		c0.977,0.104,1.881,0.484,2.682,1.145c0.426,0.342,0.776,0.738,1.035,1.172c0.241,0.408,0.417,0.824,0.531,1.227
		c0.113,0.381,0.186,0.744,0.21,1.075c0.03,0.317,0.041,0.567,0.041,0.753c0,1.067-0.28,2.068-0.825,2.973
		c-0.586,0.953-1.586,1.609-2.986,1.953c-0.559,0.133-1.128,0.213-1.7,0.242C394.566,167.435,394.007,167.446,393.43,167.446z"/>
	<polygon fill="#FFFFFF" points="411.554,168.124 424.358,168.124 424.358,166.442 411.554,166.442 411.554,156.919 
		426.292,156.919 426.292,155.237 409.575,155.237 409.575,180.108 426.743,180.108 426.743,178.427 411.554,178.427 	"/>
	<path fill="#FFFFFF" d="M451.054,170.235c-0.281-0.537-0.703-1.064-1.234-1.573c-0.539-0.495-1.268-0.944-2.188-1.333
		c-0.482-0.207-1.01-0.387-1.574-0.521l-5.344-1.348c-0.564-0.121-1.174-0.272-1.801-0.45c-0.656-0.19-1.279-0.45-1.834-0.782
		c-0.588-0.342-1.09-0.805-1.465-1.363c-0.4-0.582-0.611-1.319-0.611-2.18c0-0.826,0.197-1.568,0.59-2.196
		c0.379-0.614,0.887-1.13,1.52-1.533c0.617-0.388,1.33-0.679,2.123-0.854c1.578-0.352,3.371-0.344,5.043,0.014
		c0.91,0.195,1.742,0.576,2.484,1.127c0.576,0.424,1.014,0.888,1.332,1.377c0.303,0.467,0.541,0.924,0.705,1.364
		c0.168,0.45,0.268,0.884,0.318,1.286c0.004,0.054,0.008,0.102,0.012,0.148l2.043-0.125c-0.045-0.186-0.08-0.381-0.129-0.582
		c-0.102-0.463-0.264-0.957-0.492-1.457c-0.229-0.502-0.539-1.018-0.918-1.533c-0.361-0.494-0.836-0.959-1.418-1.373
		c-0.551-0.406-1.109-0.723-1.695-0.947c-0.592-0.225-1.197-0.41-1.771-0.534c-0.58-0.124-1.145-0.209-1.68-0.243
		c-1.072-0.07-1.854-0.076-2.982,0.014c-0.541,0.048-1.109,0.147-1.68,0.282c-0.57,0.14-1.158,0.351-1.748,0.628
		c-0.57,0.271-1.146,0.637-1.689,1.091c-0.219,0.196-0.465,0.452-0.736,0.743c-0.246,0.268-0.477,0.593-0.686,0.966
		c-0.207,0.372-0.391,0.81-0.533,1.291c-0.143,0.466-0.215,0.991-0.215,1.573c0,1.21,0.271,2.201,0.801,2.939
		c0.557,0.789,1.27,1.436,2.109,1.932c0.875,0.514,1.84,0.916,2.877,1.197c1.094,0.291,2.1,0.535,3.035,0.733l2.201,0.444
		c0.656,0.127,1.307,0.297,1.924,0.484c0.658,0.211,1.271,0.504,1.791,0.879c0.559,0.396,1.006,0.9,1.332,1.482
		c0.326,0.606,0.496,1.354,0.496,2.246c0,0.975-0.203,1.85-0.58,2.6c-0.387,0.729-0.918,1.363-1.576,1.872
		c-0.652,0.499-1.439,0.88-2.322,1.126c-1.766,0.49-3.883,0.484-5.83-0.059c-1.039-0.285-1.984-0.787-2.805-1.5
		c-0.563-0.509-0.994-1.039-1.307-1.585c-0.293-0.522-0.523-1.043-0.688-1.54c-0.162-0.504-0.271-0.987-0.313-1.438
		c-0.008-0.088-0.014-0.161-0.018-0.236l-2.334,0.297c0.127,1.064,0.381,1.992,0.746,2.768c0.449,0.942,0.984,1.727,1.605,2.328
		c0.617,0.605,1.316,1.079,2.066,1.41c0.779,0.35,1.553,0.607,2.301,0.788c0.742,0.169,1.441,0.282,2.078,0.329
		c1.318,0.092,1.875,0.086,2.961,0.014c0.516-0.027,1.08-0.115,1.693-0.227c0.588-0.115,1.211-0.299,1.842-0.531
		c0.621-0.227,1.23-0.542,1.834-0.936c1.066-0.715,1.852-1.584,2.32-2.561c0.471-1.012,0.709-2.095,0.709-3.225
		c0-0.4-0.051-0.881-0.141-1.432C451.524,171.312,451.345,170.776,451.054,170.235z"/>
	<path fill="#FFFFFF" d="M466.147,155.237l-9.465,24.871h2.199l2.943-8.037h11.006l2.852,8.037h2.193l-9.049-24.871H466.147z
		 M462.419,170.532l5.057-13.723l4.805,13.723H462.419z"/>
	<path fill="#FFFFFF" d="M497.276,168.727c0.309-0.046,0.768-0.163,1.426-0.333c0.594-0.17,1.217-0.477,1.84-0.938
		c0.604-0.446,1.16-1.091,1.645-1.923c0.465-0.804,0.701-1.926,0.701-3.331c0-1.115-0.207-2.176-0.588-3.141
		c-0.387-0.927-1.021-1.723-1.883-2.362c-0.471-0.358-0.949-0.635-1.42-0.825c-0.484-0.185-1.016-0.33-1.598-0.418
		c-0.604-0.1-1.273-0.156-1.959-0.182c-0.727-0.021-1.551-0.037-2.455-0.037h-9.043v24.871h2.014v-11.17h7.854l7.154,11.17h2.488
		l-7.258-11.219L497.276,168.727z M493.62,167.446h-7.664v-10.709h7.482c1.031,0,1.994,0.043,2.85,0.131
		c0.996,0.104,1.893,0.484,2.693,1.145c0.422,0.342,0.783,0.738,1.033,1.172c0.238,0.408,0.412,0.824,0.541,1.227
		c0.104,0.381,0.176,0.744,0.201,1.075c0.035,0.317,0.045,0.567,0.045,0.753c0,1.067-0.283,2.068-0.836,2.973
		c-0.58,0.953-1.574,1.609-2.982,1.953c-0.561,0.133-1.125,0.213-1.693,0.242C494.755,167.435,494.202,167.446,493.62,167.446z"/>
	<rect x="509.36" y="155.237" fill="#FFFFFF" width="2.086" height="24.871"/>
	<path fill="#FFFFFF" d="M526.554,155.237l-9.469,24.871h2.203l2.947-8.037h10.994l2.871,8.037h2.184l-9.049-24.871H526.554z
		 M522.839,170.532l5.043-13.723l4.807,13.723H522.839z"/>
	<polygon fill="#FFFFFF" points="546.071,155.198 543.97,155.198 543.97,180.108 558.79,180.108 558.79,178.427 546.071,178.427 	
		"/>
	<polygon fill="#FFFFFF" points="605.483,178.786 598.026,155.237 595.798,155.237 604.179,180.108 606.671,180.108 
		615.446,155.237 613.229,155.237 	"/>
	<rect x="621.089" y="155.237" fill="#FFFFFF" width="2.094" height="24.871"/>
	<polygon fill="#FFFFFF" points="644.099,168.124 656.899,168.124 656.899,166.442 644.099,166.442 644.099,156.919 
		658.835,156.919 658.835,155.237 642.12,155.237 642.12,180.108 659.286,180.108 659.286,178.427 644.099,178.427 	"/>
	<path fill="#FFFFFF" d="M685.339,163.458c-0.205-0.855-0.523-1.76-0.932-2.679c-0.404-0.893-0.975-1.747-1.705-2.525
		c-0.717-0.759-1.445-1.349-2.17-1.745c-0.744-0.4-1.504-0.695-2.285-0.881c-0.801-0.19-1.621-0.297-2.461-0.332
		c-0.869-0.037-1.758-0.059-2.66-0.059h-7.523v24.871h8.34c0.537,0,1.16-0.011,1.848-0.037c0.676-0.026,1.387-0.117,2.115-0.283
		c0.723-0.159,1.469-0.427,2.23-0.785c0.736-0.355,1.473-0.857,2.191-1.501c0.809-0.774,1.475-1.648,1.926-2.583
		c0.469-0.962,0.83-1.918,1.045-2.834c0.225-0.924,0.361-1.787,0.412-2.556c0.043-0.8,0.066-1.423,0.066-1.854
		c0-0.464-0.023-1.069-0.066-1.821C685.659,165.134,685.532,164.327,685.339,163.458z M683.216,171.538
		c-0.256,1.092-0.602,2.027-1.037,2.787c-0.424,0.766-0.896,1.397-1.406,1.877c-0.494,0.473-1.006,0.85-1.502,1.127
		c-0.945,0.543-1.932,0.87-2.945,0.982c-0.955,0.1-2.02,0.164-3.188,0.189h-4.66h-0.709v-21.582h4.83
		c0.953,0,1.826,0.02,2.619,0.059c0.846,0.039,1.656,0.18,2.434,0.418c1.139,0.354,2.107,0.896,2.891,1.609
		c0.76,0.693,1.385,1.524,1.846,2.455c0.455,0.914,0.775,1.92,0.957,3.002c0.178,1.063,0.268,2.151,0.268,3.244
		C683.612,169.169,683.491,170.455,683.216,171.538z"/>
	<rect x="692.546" y="155.237" fill="#FFFFFF" width="2.09" height="24.871"/>
	<path fill="#FFFFFF" d="M722.116,174.747c-0.613,1.053-1.367,1.928-2.23,2.6c-0.848,0.673-1.807,1.167-2.84,1.48
		c-2.605,0.771-5.352,0.529-7.412-0.432c-1.262-0.591-2.33-1.427-3.189-2.48c-0.854-1.047-1.5-2.307-1.928-3.744
		c-0.426-1.406-0.646-2.98-0.646-4.682c0-1.393,0.162-2.785,0.488-4.148c0.326-1.41,0.959-2.693,1.859-3.811
		c0.932-1.196,2.109-2.109,3.477-2.701c1.354-0.58,2.799-0.877,4.303-0.877c1.771,0,3.299,0.346,4.527,1.019
		c1.227,0.659,2.197,1.435,2.9,2.294c0.529,0.621,0.906,1.184,1.129,1.701c0.111,0.279,0.234,0.57,0.338,0.863l2.145-0.447
		c-0.061-0.127-0.121-0.27-0.176-0.416c-0.195-0.467-0.469-0.986-0.836-1.547c-0.354-0.555-0.818-1.125-1.365-1.703
		c-0.543-0.559-1.211-1.083-2.002-1.56c-0.783-0.465-1.73-0.854-2.807-1.151c-1.098-0.289-2.375-0.441-3.822-0.441
		c-2.152,0-4.033,0.357-5.609,1.061c-1.576,0.704-2.891,1.646-3.906,2.813c-1.027,1.18-1.809,2.574-2.32,4.148
		c-0.529,1.594-0.785,3.306-0.785,5.091c0,1.757,0.25,3.451,0.744,5.037c0.502,1.562,1.252,2.96,2.26,4.149
		c0.992,1.179,2.266,2.136,3.777,2.847c1.51,0.712,3.307,1.071,5.354,1.071c1.814,0,3.434-0.285,4.814-0.843
		c1.4-0.567,2.621-1.31,3.639-2.219c1.004-0.913,1.844-1.955,2.477-3.09c0.488-0.903,0.881-1.82,1.143-2.741l-2.377-0.275
		C723.009,172.804,722.638,173.852,722.116,174.747z"/>
	<rect x="730.987" y="155.237" fill="#FFFFFF" width="2.105" height="24.871"/>
	<path fill="#FFFFFF" d="M761.354,157.929c-1.1-1.08-2.438-1.918-3.955-2.497c-1.527-0.57-3.188-0.868-4.928-0.868
		c-1.549,0-3.105,0.258-4.598,0.749c-1.479,0.486-2.822,1.269-3.992,2.313c-1.176,1.041-2.135,2.408-2.857,4.06
		c-0.727,1.649-1.098,3.661-1.098,5.99c0,1.968,0.301,3.772,0.883,5.371c0.594,1.59,1.424,2.979,2.508,4.118
		c1.061,1.141,2.363,2.031,3.875,2.661c1.518,0.634,3.26,0.954,5.174,0.954c2.072,0,3.92-0.346,5.492-1.026
		c1.553-0.675,2.877-1.612,3.92-2.798c1.045-1.187,1.846-2.604,2.393-4.223c0.527-1.627,0.816-3.42,0.816-5.322
		c0-2.036-0.332-3.873-0.975-5.467C763.374,160.354,762.472,159.005,761.354,157.929z M762.112,171.646
		c-0.326,1.436-0.887,2.738-1.67,3.872c-0.791,1.149-1.844,2.104-3.139,2.821c-1.314,0.725-2.922,1.092-4.787,1.092
		c-1.803,0-3.363-0.347-4.674-1.031c-1.287-0.68-2.361-1.588-3.197-2.693c-0.816-1.102-1.412-2.37-1.781-3.758
		c-0.371-1.369-0.553-2.787-0.553-4.242c0-1.539,0.186-3.023,0.566-4.405c0.383-1.407,0.996-2.671,1.816-3.735
		c0.826-1.095,1.91-1.97,3.186-2.61c1.285-0.642,2.826-0.966,4.592-0.966c1.602,0,3.059,0.281,4.307,0.842
		c1.262,0.563,2.332,1.375,3.193,2.404c0.854,1.025,1.508,2.253,1.965,3.646c0.43,1.377,0.66,2.918,0.66,4.566
		C762.597,168.838,762.431,170.247,762.112,171.646z"/>
	<polygon fill="#FFFFFF" points="789.704,177.921 774.354,155.237 772.163,155.237 772.163,180.108 774.021,180.108 773.7,157.097 
		789.21,180.108 791.294,180.108 791.294,155.237 789.54,155.237 	"/>
	<path fill="#FFFFFF" d="M576.813,164.209c-1.799,0-3.262,1.47-3.262,3.276s1.463,3.275,3.262,3.275
		c1.814,0,3.275-1.469,3.275-3.275S578.628,164.209,576.813,164.209z"/>
</g>
</svg>
