<?xml version="1.0" encoding="utf-8"?>
<!-- Generator: Adobe Illustrator 16.0.0, SVG Export Plug-In . SVG Version: 6.00 Build 0)  -->
<!DOCTYPE svg PUBLIC "-//W3C//DTD SVG 1.1//EN" "http://www.w3.org/Graphics/SVG/1.1/DTD/svg11.dtd">
<svg version="1.1" id="Capa_1" xmlns="http://www.w3.org/2000/svg" xmlns:xlink="http://www.w3.org/1999/xlink" x="0px" y="0px"
	 width="271.111px" height="82.222px" viewBox="0 0 271.111 82.222" enable-background="new 0 0 271.111 82.222"
	 xml:space="preserve">
<g>
	<g>
		<g>
			<path fill="#FFFFFF" d="M46.594,61.237H30.563c-5.842,0-10.593-4.752-10.593-10.592V34.612c0-5.841,4.751-10.593,10.593-10.593
				h16.031c5.842,0,10.594,4.752,10.594,10.593v16.033C57.188,56.485,52.436,61.237,46.594,61.237z M30.563,27.208
				c-4.082,0-7.403,3.321-7.403,7.403v16.033c0,4.082,3.321,7.402,7.403,7.402h16.031c4.083,0,7.403-3.32,7.403-7.402V34.612
				c0-4.082-3.32-7.403-7.403-7.403H30.563z"/>
		</g>
		<g>
			<path fill="#FFFFFF" d="M38.579,52.158c-5.255,0-9.529-4.274-9.529-9.529s4.274-9.53,9.529-9.53s9.529,4.275,9.529,9.53
				S43.833,52.158,38.579,52.158z M38.579,36.289c-3.496,0-6.34,2.844-6.34,6.34c0,3.494,2.844,6.339,6.34,6.339
				s6.34-2.845,6.34-6.339C44.918,39.132,42.075,36.289,38.579,36.289z"/>
		</g>
		<g>
			<circle fill="#FFFFFF" cx="48.517" cy="32.553" r="2.29"/>
		</g>
	</g>
	<path fill-rule="evenodd" clip-rule="evenodd" fill="#FFFFFF" d="M107.354,36.432v-2.641c0-1.268,0.854-1.571,1.459-1.571
		c0.578,0,3.689,0,3.689,0v-5.644h-5.093c-5.646,0-6.911,4.186-6.911,6.883v2.973h-3.275v3.966v2.614h3.303
		c0,7.463,0,16.438,0,16.438h6.581c0,0,0-9.086,0-16.438h4.872l0.221-2.588l0.386-3.992H107.354z"/>
	<path fill-rule="evenodd" clip-rule="evenodd" fill="none" stroke="#FFFFFF" stroke-width="3" stroke-miterlimit="10" d="
		M129.049,55.907c0,7.324-5.938,13.262-13.262,13.262h-22.41c-7.324,0-13.262-5.938-13.262-13.262V27.751
		c0-7.323,5.938-13.261,13.262-13.261h22.41c7.324,0,13.262,5.938,13.262,13.261V55.907z"/>
	<path fill-rule="evenodd" clip-rule="evenodd" fill="none" stroke="#FFFFFF" stroke-width="3" stroke-miterlimit="10" d="
		M192.377,54.542c0,7.325-5.938,13.263-13.263,13.263h-22.41c-7.324,0-13.262-5.938-13.262-13.263V26.387
		c0-7.322,5.938-13.261,13.262-13.261h22.41c7.324,0,13.263,5.938,13.263,13.261V54.542z"/>
	<path fill-rule="evenodd" clip-rule="evenodd" fill="none" stroke="#FFFFFF" stroke-width="3" stroke-miterlimit="10" d="
		M256.493,54.542c0,7.325-5.938,13.263-13.263,13.263h-22.409c-7.325,0-13.263-5.938-13.263-13.263V26.387
		c0-7.322,5.938-13.261,13.263-13.261h22.409c7.325,0,13.263,5.938,13.263,13.261V54.542z"/>
	<path fill-rule="evenodd" clip-rule="evenodd" fill="none" stroke="#FFFFFF" stroke-width="3" stroke-miterlimit="10" d="
		M63.046,55.907c0,7.324-5.938,13.262-13.263,13.262h-22.41c-7.324,0-13.263-5.938-13.263-13.262V27.751
		c0-7.323,5.938-13.261,13.263-13.261h22.41c7.324,0,13.263,5.938,13.263,13.261V55.907z"/>
	<g>
		<g>
			<path fill="#FFFFFF" d="M186.445,30.336c-1.364,0.604-2.828,1.014-4.367,1.197c1.571-0.94,2.772-2.434,3.343-4.205
				c-1.473,0.871-3.1,1.504-4.831,1.847c-1.389-1.479-3.362-2.401-5.551-2.401c-4.2,0-7.605,3.404-7.605,7.603
				c0,0.595,0.067,1.177,0.196,1.733c-6.318-0.318-11.922-3.346-15.672-7.945c-0.656,1.121-1.028,2.426-1.028,3.82
				c0,2.64,1.344,4.969,3.382,6.329c-1.247-0.042-2.419-0.384-3.444-0.954v0.095c0,3.683,2.622,6.757,6.099,7.457
				c-0.637,0.171-1.309,0.267-2.004,0.267c-0.49,0-0.966-0.049-1.432-0.143c0.969,3.024,3.776,5.222,7.103,5.282
				c-2.602,2.039-5.882,3.25-9.444,3.25c-0.613,0-1.218-0.036-1.814-0.104c3.367,2.161,7.362,3.421,11.656,3.421
				c13.99,0,21.637-11.588,21.637-21.637l-0.025-0.983C184.136,33.2,185.427,31.86,186.445,30.336z"/>
		</g>
	</g>
	<g>
		<path fill="none" stroke="#FFFFFF" stroke-width="2" stroke-miterlimit="10" d="M249.4,32.725
			c-1.024-1.82-2.135-2.154-4.395-2.282c-2.26-0.153-7.94-0.217-12.862-0.217c-4.931,0-10.613,0.063-12.87,0.214
			c-2.256,0.131-3.37,0.463-4.402,2.285c-1.055,1.818-1.597,4.95-1.597,10.463v0.008c0,0.006,0,0.006,0,0.006v0.005
			c0,5.489,0.542,8.646,1.597,10.444c1.032,1.821,2.144,2.15,4.399,2.304c2.26,0.133,7.942,0.21,12.873,0.21
			c4.922,0,10.603-0.077,12.863-0.207c2.262-0.154,3.372-0.483,4.396-2.304c1.064-1.8,1.602-4.954,1.602-10.444v-0.012V43.19
			C251.003,37.675,250.466,34.543,249.4,32.725z M227.422,50.27V36.122l11.79,7.074L227.422,50.27z"/>
	</g>
</g>
</svg>
